<svg xmlns="http://www.w3.org/2000/svg" height="793.667" width="1085.427"><defs><clipPath id="a" clipPathUnits="userSpaceOnUse"><path d="M2706.64 1350.03c-.17 0-.33 0-.5.01-12.18.27-21.81 10.34-21.55 22.52.28 12 10.1 21.55 22.04 21.55h.49c12.16-.29 21.81-10.37 21.54-22.55-.26-11.97-10.08-21.53-22.02-21.53"/></clipPath></defs><path d="M0 724.535h1085.427V-.005H0z" fill="#fff"/><path d="M220.665 116.972c12.808 6.61 11.158 33.883 20.247 60.327 6.119 17.801 3.847 335.913 1.707 541.994h33.017c-7.459-185.358-18.196-453.76-18.196-462.66 0-13.636-2.892-71.07.413-89.252 2.983-16.404 16.054-142.822 18.582-167.386h-8.292c-2.042 18.7-10.29 94.605-10.29 100.036 0 6.197-5.372 71.482-8.265 67.764-2.89-3.719 4.133-43.8-21.899-81.4-21.669-31.3-26.445-73.227-27.438-86.4h-7.795c-4.67 30.084 26.239 92.309 28.21 94.87 2.065 2.687 2.063 12.19-7.853 3.512-9.917-8.677-55.368-42.146-66.11-51.649-8.662-7.661-15.708-36.02-18.115-46.733h-4.025c1.37 9.168 5.086 31.226 10.562 42.188 7.018 14.049 72.731 68.177 85.54 74.789" fill="#8b6c49"/><path d="M282.419-.005c-.726 1.545-1.158 3.285-1.422 5.321-1.144 8.792-4.496 16.775-5.86 25.463-1.952 12.429 2.496 27.058-8.437 36.365-.916.777.407 2.087 1.313 1.315 8.471-7.21 8.414-18.136 8.47-28.423.04-7.46 1.473-14.068 3.809-21.14 1.825-5.523 1.335-13.644 4.387-18.901h-2.26" fill="#8b6c49"/><path d="M299.473-.005c-.366.474-.744.964-1.14 1.469-4.938 6.3-13.686 7.427-18.824 13.617-.76.914.548 2.238 1.316 1.314 4.182-5.04 10.326-6.284 15.27-10.204 2.308-1.831 3.97-4.112 5.725-6.196h-2.347M239.33 107.715c2.529-15.687 3.422-31.84-3.275-46.648-1.707-3.775-4.315-7.058-6.275-10.696-2.483-4.611-3.51-9.814-3.904-14.979-.601-7.887.605-15.892.679-23.787.01-1.198-1.848-1.198-1.86 0-.134 14.424-2.71 28.207 4.436 41.478 2.281 4.238 4.985 7.865 6.8 12.394 1.709 4.268 2.542 8.883 3.093 13.422 1.141 9.393.01 19.044-1.488 28.322-.19 1.172 1.603 1.675 1.795.494" fill="#8b6c49"/><path d="M240.89 90.17c3.873-7.494 15.845-4.862 22.962-6.095 7.776-1.348 14.341-6.059 20.916-10.1 1.019-.627.085-2.235-.939-1.606-8.808 5.415-16.601 10.174-27.262 10.678-6.58.31-13.774-.608-17.284 6.184-.55 1.064 1.054 2.004 1.606.938M239.503 77.06c-2.438-2.5-5.342-3.51-8.591-4.643-5.672-1.977-6.879-6.06-10.4-10.202-5.77-6.788-16.077-6.079-24.225-6.087-1.199-.001-1.198 1.857 0 1.859 10.029.012 19.422-.315 25.213 9.15 4.176 6.827 11.559 5.978 16.69 11.238.837.86 2.151-.456 1.313-1.315M256.032 182.501c8.443-9.452 18.51-18.274 20.625-31.357 1.078-6.676.112-13.464 1.527-20.11 1.36-6.387 5.823-11.449 9.693-16.458 8.171-10.581 11.168-23.495 22.292-31.65 8.676-6.358 13.431-15.026 17.906-24.573.505-1.078-1.098-2.022-1.606-.938-2.313 4.934-4.654 9.83-7.738 14.34-3.442 5.032-8.134 8.14-12.778 11.916-9.057 7.366-11.716 19.41-18.564 28.518-3.309 4.402-6.87 8.476-9.296 13.464-2.288 4.704-2.584 9.886-2.706 15.012-.208 8.594-.891 15.97-5.832 23.288-4.234 6.271-9.815 11.611-14.836 17.234-.798.89.513 2.21 1.313 1.314" fill="#8b6c49"/><path d="M277.25 132.316c4.011-9.164 16.718-7.064 23-14.14 2.24-2.524 3.827-5.03 6.758-6.893 2.61-1.662 5.96-2.226 8.941-2.815 5.988-1.185 11.563-2.17 16.751-5.57.997-.653.067-2.265-.94-1.605-9.65 6.326-23.42 3.372-30.91 13.143-4.175 5.445-8.045 6.685-14.362 8.65-4.613 1.433-8.84 3.714-10.843 8.291-.476 1.087 1.127 2.035 1.606.939" fill="#8b6c49"/><path d="M302.892 114.595c2.71-.227 4.913-.152 7.028 1.754 1.37 1.235 2.49 2.915 4.072 3.904 4.285 2.678 8.757 3.047 13.692 3.432 1.197.094 1.188-1.766 0-1.858-6.89-.539-11.507-1.835-16.45-6.794-2.34-2.345-5.177-2.562-8.342-2.297-1.185.1-1.196 1.96 0 1.859M275.455 137.561c-7.882-2.268-7.252-11.641-10.187-17.753-2.979-6.205-7.56-9.05-13.779-11.584-1.109-.452-1.59 1.347-.493 1.792 4.444 1.812 8.29 3.739 11.113 7.78 2.21 3.165 2.896 7.265 3.974 10.9 1.436 4.855 3.757 9.185 8.878 10.659 1.155.332 1.646-1.463.494-1.794M195.532 84.908c-1.133-4.07-3.163-7.487-5.39-11.057-3.25-5.208-5.147-10.482-6.42-16.447-.791-3.719-1.966-6.832-3.918-10.079-3.44-5.73-3.373-10.678-3.248-17.125.024-1.2-1.835-1.197-1.859 0-.09 4.627-.608 9.064 1.006 13.48 1.59 4.353 4.497 7.707 5.777 12.297 1.293 4.642 1.967 9.151 4.087 13.532 2.622 5.419 6.534 10.007 8.17 15.894.32 1.153 2.115.662 1.795-.495M162.096 60.776c.056-5.293.399-10.536-.341-15.795-.752-5.366-4.134-10.169-7.174-14.476-3.149-4.462-7.272-8.189-11.408-11.708-5.209-4.43-7.117-10.281-10.542-15.924-.621-1.024-2.23-.09-1.606.938 2.374 3.91 3.758 8.67 6.756 12.17 3.375 3.939 7.56 7.251 11.31 10.835 4.521 4.324 8.668 10.845 10.48 16.833 1.626 5.37.724 11.6.665 17.127-.013 1.2 1.845 1.199 1.86 0" fill="#8b6c49"/><path d="M152.408-.005c-5.093 4.272-10.261 8.453-15.452 12.606-.937.75.388 2.056 1.315 1.315 5.726-4.581 11.437-9.181 17.032-13.921h-2.895M140.504 18.527c-7.592-.058-15.04-.926-22.477-2.446-1.17-.24-1.668 1.552-.494 1.792 7.603 1.555 15.206 2.454 22.971 2.512 1.201.01 1.2-1.849 0-1.858M156.263 64.105c-8.536-5.37-18.74-7.798-28.468-9.993-5.277-1.19-10.595-1.96-15.915-2.91-7.198-1.285-12.346-5.771-18.408-9.39-4.426-2.643-9.841-3.88-14.565-5.912C72.7 33.23 67.34 29.057 63.55 23.43 58.076 15.304 53.065 5.758 43.873 1.3c-1.073-.521-2.017 1.081-.939 1.605C53.201 7.884 57.48 18.997 64.24 27.46c6.336 7.93 16.008 10.995 25.107 14.51 5.8 2.242 10.476 6.617 16.087 9.29 5.107 2.433 11.345 2.488 16.824 3.58 11.186 2.227 23.3 4.725 33.067 10.87 1.017.642 1.95-.967.939-1.605" fill="#8b6c49"/><path d="M148.77 61.499c-14.517.306-27.788 6.068-41.567 9.95-1.154.324-.663 2.119.493 1.794 13.617-3.836 26.723-9.583 41.075-9.884 1.196-.026 1.198-1.886 0-1.86M244.052 192.104c-10.076-1.624-17.863-12.477-23.41-20.233-3.969-5.548-6.438-11.83-6.65-18.699-.117-3.801-1.29-6.365-3.707-9.292-2.658-3.221-4.674-3.184-6.232-7.941-.889-2.718-1.678-4.768-3.162-7.247-2.771-4.636-6.618-8.639-10.314-12.532-3.988-4.201-8.034-8.365-11.813-12.759-4.09-4.753-5.437-11.272-8.533-16.649-.598-1.039-2.204-.103-1.606.939 2.886 5.01 4.383 10.69 7.632 15.492 3.166 4.681 7.718 8.781 11.618 12.845 4.597 4.79 9.018 9.6 12.444 15.328 1.62 2.71 2.082 5.963 3.43 8.81.955 2.02 3.614 3.567 5.222 5.029 4.165 3.782 3.265 12.192 4.801 17.413 1.51 5.148 4.644 9.47 7.836 13.692 5.33 7.056 12.655 16.099 21.95 17.596 1.173.19 1.675-1.601.494-1.792" fill="#8b6c49"/><path d="M210.335 144.552c-3.798.341-7.498.324-11.215-.661-3.515-.932-5.62-4.364-8.9-5.716-8.2-3.382-18.377-1.178-26.99-1.06-1.198.017-1.2 1.876 0 1.86 9.515-.13 21.727-3.056 29.731 3.273 5.266 4.165 10.782 4.756 17.374 4.164 1.184-.107 1.196-1.967 0-1.86M190.985 74.579c-4.408-11.078 4.707-22.855 5.139-34.007.32-8.205-1.659-19.53-8.27-25.079-.911-.765-2.235.543-1.315 1.315 7.857 6.596 8.993 21.183 6.67 30.479-2.209 8.83-7.66 18.628-4.018 27.785.438 1.1 2.237.621 1.794-.493" fill="#8b6c49"/><path d="M193.037 53.315c9.718-5.568 20.343-8.039 31.006-11.087 9.321-2.665 19.18-9.963 29.017-7 1.152.347 1.64-1.447.495-1.792-9.432-2.841-17.09 2.72-25.767 5.685-12.081 4.132-24.472 6.16-35.69 12.588-1.04.596-.103 2.203.94 1.606M121.497 289.275c0 13.864-3.004 256.605-5.172 430.018h39.186c-4.719-158.749-11.166-370.912-12.32-384.773-1.86-22.312-8.679-143.172-6.199-156.808 2.479-13.636 10.537-37.188 19.835-53.923 8.222-14.802 17.9-103.508 20.025-123.794h-3.507c-3.42 16.926-16.316 80.418-18.998 88.466-3.099 9.296-9.916 30.99-12.396 27.891-2.2-2.75-.496-95.504-.084-116.357h-8.61c-.7 18.388-3.313 92.353-.604 106.44 3.099 16.114-3.719 81.813-11.156 83.053-7.438 1.24-19.214-107.225-19.833-122.721-.62-15.495 11.776-52.683 11.776-52.683l-4.339-3.099S97.945 69.867 96.085 57.471c-.122-.814-.351-1.788-.671-2.895C91.706 41.803 75.713 11.141 69.792-.005h-8.39c2.675 8.384 9.77 28.872 22.907 55.616 17.355 35.329 37.188 211.972 37.188 233.664" fill="#8b6c49"/><path d="M108.275 155.296c-9.335-1.107-16.476-12.025-22.136-18.612-7.871-9.157-15.957-17.941-24.103-26.827-3.534-3.853-5.296-9.036-8.434-13.188-3.774-4.997-6.105-9.088-7.922-15.093-2.571-8.513-6.232-15.457-14.203-19.95-1.045-.589-1.983 1.017-.938 1.606 11 6.199 11.466 16.617 16.141 27.004 2.219 4.925 6.617 8.792 9.214 13.567 2.853 5.244 6.406 8.942 10.605 13.142 7.934 7.934 14.823 16.964 22.107 25.486 5.078 5.938 11.366 13.741 19.67 14.725 1.188.141 1.175-1.72 0-1.86" fill="#8b6c49"/><path d="M71.572 122.096c-2.157-7.467-2.835-16.555-3.038-24.36-.169-6.477 1.491-13.09-1.188-19.248-.477-1.097-2.078-.15-1.606.939 2.878 6.613.48 14.462 1.114 21.43.648 7.156.92 14.796 2.924 21.734.333 1.149 2.126.66 1.794-.495M122.136 257.863c-9.336-1.107-16.477-12.027-22.137-18.612-7.87-9.158-15.955-17.942-24.103-26.827-3.533-3.853-5.295-9.036-8.433-13.19-3.773-4.995-6.106-9.086-7.922-15.091-2.572-8.514-6.232-15.458-14.203-19.951-1.046-.588-1.983 1.017-.94 1.607 11.003 6.198 11.467 16.617 16.143 27.004 2.219 4.925 6.617 8.792 9.214 13.565 2.854 5.245 6.406 8.944 10.605 13.144 7.934 7.933 14.824 16.964 22.108 25.485 5.077 5.939 11.365 13.742 19.668 14.724 1.19.142 1.176-1.72 0-1.858" fill="#8b6c49"/><path d="M85.433 224.663c-2.158-7.467-2.835-16.556-3.038-24.362-.169-6.476 1.492-13.089-1.189-19.246-.476-1.098-2.078-.15-1.605.938 2.878 6.612.482 14.463 1.113 21.43.649 7.157.92 14.796 2.925 21.734.333 1.15 2.126.66 1.794-.494M68.998 100.499c2.26-4.878 9.08-6.355 12.664-10.142.823-.87-.49-2.188-1.315-1.314-3.725 3.94-10.563 5.357-12.954 10.518-.5 1.08 1.101 2.026 1.605.938M81.252 131.364c-11.69-4.732-27.45 4.95-35.806-7.424-.667-.988-2.279-.059-1.605.939 9.04 13.39 24.45 3.232 36.916 8.277 1.113.45 1.591-1.35.495-1.792M109.585 145.73c2.447-6.5 7.147-11.774 9.925-18.123 2.71-6.195 4.286-14.088 4.98-20.796.774-7.507-.207-14.214-1.746-21.542-1.784-8.484-.436-17.156-2.415-25.566-.275-1.167-2.068-.672-1.795.493 1.676 7.115.468 14.37 1.68 21.532 1.56 9.219 3.469 17.55 2.146 26.984-.985 7.036-2.797 14.89-5.999 21.237-2.653 5.259-6.474 9.72-8.57 15.286-.422 1.124 1.375 1.605 1.794.494" fill="#8b6c49"/><path d="M119.916 124.576c-1.896-8.128-7.557-14.593-9.613-22.721-1.835-7.26-5.39-14.747-10.243-20.455-9.154-10.772-24.443-16.847-37.403-21.52-1.13-.408-1.613 1.39-.493 1.793 13.018 4.695 26.968 10.763 36.581 21.042 5.377 5.746 8.398 14.221 10.286 21.694 1.87 7.395 7.352 13.206 9.09 20.66.274 1.168 2.066.674 1.795-.493M229.101-.005c-1.029 1.666-2.148 3.281-3.516 4.756-4.473 4.821-9.237 9.365-13.636 14.254-6.832 7.598-15.906 13.78-19.958 23.519-5.274 12.67-3.251 27.17-10.736 39.1-6.171 9.833-16.348 16.192-21.514 26.821-.52 1.074 1.083 2.016 1.606.938 4.846-9.968 13.904-16.627 20.482-25.335 8.099-10.719 7.228-25.056 10.603-37.487 3.177-11.712 14.575-19.284 22.3-27.872 4.345-4.83 9.097-9.31 13.517-14.077 1.284-1.385 2.318-2.967 3.263-4.617h-2.41M144.988 379.576s34.725-63.281 46.672-98.61c11.947-35.329-12.595-65.08-13.03-81.814h-3.865s21.063 52.683 16.895 63.84c-4.168 11.156-.45 14.564-9.747 32.85-9.297 18.283-37.428 69.425-37.428 69.425l-4.098 14.309h4.601M732.059 116.972c12.808 6.61 11.157 33.883 20.246 60.327 6.119 17.801 3.847 335.913 1.708 541.994h33.016c-7.457-185.358-18.196-453.76-18.196-462.66 0-13.636-2.892-71.07.415-89.252 2.983-16.404 16.053-142.822 18.58-167.386h-8.292c-2.041 18.7-10.288 94.605-10.288 100.036 0 6.197-5.373 71.482-8.267 67.764-2.89-3.719 4.134-43.8-21.897-81.4-21.67-31.3-26.445-73.227-27.439-86.4h-7.794c-4.67 30.084 26.237 92.309 28.208 94.87 2.066 2.687 2.065 12.19-7.852 3.512-9.916-8.677-55.367-42.146-66.111-51.649-8.661-7.661-15.707-36.02-18.115-46.733h-4.024c1.37 9.168 5.087 31.226 10.563 42.188 7.016 14.049 72.73 68.177 85.539 74.789" fill="#8b6c49"/><path d="M793.812-.005c-.727 1.545-1.156 3.285-1.421 5.321-1.143 8.792-4.495 16.775-5.86 25.463-1.951 12.429 2.497 27.058-8.438 36.365-.914.777.407 2.087 1.315 1.315 8.47-7.21 8.412-18.136 8.468-28.423.041-7.46 1.475-14.068 3.81-21.14 1.826-5.523 1.335-13.644 4.387-18.901h-2.261" fill="#8b6c49"/><path d="M810.867-.005c-.367.474-.743.964-1.139 1.469-4.939 6.3-13.688 7.427-18.824 13.617-.761.914.548 2.238 1.315 1.314 4.182-5.04 10.325-6.284 15.269-10.204 2.31-1.831 3.972-4.112 5.725-6.196h-2.346M750.724 107.715c2.528-15.687 3.421-31.84-3.276-46.648-1.705-3.775-4.313-7.058-6.273-10.696-2.483-4.611-3.512-9.814-3.906-14.979-.601-7.887.606-15.892.679-23.787.012-1.198-1.848-1.198-1.86 0-.132 14.424-2.71 28.207 4.437 41.478 2.28 4.238 4.986 7.865 6.799 12.394 1.71 4.268 2.543 8.883 3.093 13.422 1.142 9.393.01 19.044-1.488 28.322-.188 1.172 1.603 1.675 1.795.494" fill="#8b6c49"/><path d="M752.283 90.17c3.873-7.494 15.846-4.862 22.964-6.095 7.776-1.348 14.34-6.059 20.914-10.1 1.02-.627.087-2.235-.938-1.606-8.807 5.415-16.6 10.174-27.262 10.678-6.581.31-13.773-.608-17.284 6.184-.549 1.064 1.055 2.004 1.606.938M750.897 77.06c-2.437-2.5-5.342-3.51-8.592-4.643-5.67-1.977-6.878-6.06-10.398-10.202-5.771-6.788-16.079-6.079-24.226-6.087-1.2-.001-1.198 1.857 0 1.859 10.028.012 19.422-.315 25.214 9.15 4.176 6.827 11.558 5.978 16.689 11.238.836.86 2.152-.456 1.313-1.315M767.425 182.501c8.443-9.452 18.51-18.274 20.626-31.357 1.078-6.676.112-13.464 1.528-20.11 1.358-6.387 5.822-11.449 9.692-16.458 8.17-10.581 11.168-23.495 22.293-31.65 8.676-6.358 13.43-15.026 17.905-24.573.504-1.078-1.098-2.022-1.606-.938-2.314 4.934-4.655 9.83-7.738 14.34-3.441 5.032-8.134 8.14-12.777 11.916-9.057 7.366-11.716 19.41-18.565 28.518-3.31 4.402-6.87 8.476-9.296 13.464-2.288 4.704-2.583 9.886-2.707 15.012-.207 8.594-.89 15.97-5.832 23.288-4.233 6.271-9.813 11.611-14.836 17.234-.797.89.515 2.21 1.313 1.314" fill="#8b6c49"/><path d="M788.644 132.316c4.01-9.164 16.717-7.064 22.999-14.14 2.241-2.524 3.829-5.03 6.76-6.893 2.609-1.662 5.958-2.226 8.941-2.815 5.987-1.185 11.563-2.17 16.75-5.57.997-.653.066-2.265-.94-1.605-9.651 6.326-23.42 3.372-30.909 13.143-4.176 5.445-8.046 6.685-14.364 8.65-4.613 1.433-8.84 3.714-10.842 8.291-.475 1.087 1.126 2.035 1.605.939" fill="#8b6c49"/><path d="M814.287 114.595c2.709-.227 4.912-.152 7.026 1.754 1.372 1.235 2.491 2.915 4.072 3.904 4.286 2.678 8.758 3.047 13.694 3.432 1.196.094 1.186-1.766 0-1.858-6.891-.539-11.507-1.835-16.451-6.794-2.339-2.345-5.176-2.562-8.341-2.297-1.187.1-1.198 1.96 0 1.859M786.85 137.561c-7.882-2.268-7.254-11.641-10.189-17.753-2.977-6.205-7.56-9.05-13.778-11.584-1.11-.452-1.59 1.347-.494 1.792 4.444 1.812 8.292 3.739 11.114 7.78 2.209 3.165 2.897 7.265 3.973 10.9 1.437 4.855 3.759 9.185 8.88 10.659 1.155.332 1.644-1.463.493-1.794M706.925 84.908c-1.132-4.07-3.162-7.487-5.389-11.057-3.25-5.208-5.148-10.482-6.419-16.447-.793-3.719-1.968-6.832-3.92-10.079-3.44-5.73-3.373-10.678-3.246-17.125.022-1.2-1.836-1.197-1.86 0-.091 4.627-.608 9.064 1.005 13.48 1.592 4.353 4.497 7.707 5.777 12.297 1.294 4.642 1.968 9.151 4.088 13.532 2.623 5.419 6.534 10.007 8.171 15.894.32 1.153 2.115.662 1.793-.495M673.49 60.776c.055-5.293.398-10.536-.342-15.795-.75-5.366-4.132-10.169-7.173-14.476-3.15-4.462-7.272-8.189-11.407-11.708-5.21-4.43-7.119-10.281-10.543-15.924-.621-1.024-2.229-.09-1.606.938 2.374 3.91 3.758 8.67 6.757 12.17 3.373 3.939 7.56 7.251 11.308 10.835 4.523 4.324 8.668 10.845 10.481 16.833 1.626 5.37.724 11.6.666 17.127-.015 1.2 1.844 1.199 1.858 0" fill="#8b6c49"/><path d="M663.803-.005C658.708 4.267 653.54 8.448 648.35 12.6c-.938.75.388 2.056 1.313 1.315 5.727-4.581 11.437-9.181 17.032-13.921h-2.893M651.899 18.527c-7.594-.058-15.04-.926-22.479-2.446-1.17-.24-1.668 1.552-.493 1.792 7.602 1.555 15.206 2.454 22.972 2.512 1.2.01 1.198-1.849 0-1.858M667.656 64.105c-8.535-5.37-18.739-7.798-28.467-9.993-5.277-1.19-10.596-1.96-15.916-2.91-7.197-1.285-12.345-5.771-18.408-9.39-4.425-2.643-9.84-3.88-14.564-5.912-6.208-2.67-11.566-6.843-15.357-12.47-5.473-8.127-10.485-17.673-19.677-22.13-1.072-.521-2.016 1.081-.939 1.605 10.267 4.979 14.545 16.092 21.305 24.555 6.336 7.93 16.007 10.995 25.107 14.51 5.8 2.242 10.476 6.617 16.087 9.29 5.106 2.433 11.345 2.488 16.824 3.58 11.185 2.227 23.301 4.725 33.066 10.87 1.019.642 1.951-.967.939-1.605" fill="#8b6c49"/><path d="M660.164 61.499c-14.517.306-27.788 6.068-41.568 9.95-1.153.324-.663 2.119.493 1.794 13.618-3.836 26.723-9.583 41.075-9.884 1.197-.026 1.199-1.886 0-1.86M755.445 192.104c-10.076-1.624-17.861-12.477-23.409-20.233-3.968-5.548-6.439-11.83-6.65-18.699-.118-3.801-1.291-6.365-3.706-9.292-2.659-3.221-4.675-3.184-6.233-7.941-.89-2.718-1.679-4.768-3.162-7.247-2.77-4.636-6.618-8.639-10.313-12.532-3.99-4.201-8.036-8.365-11.815-12.759-4.089-4.753-5.437-11.272-8.532-16.649-.597-1.039-2.205-.103-1.605.939 2.885 5.01 4.383 10.69 7.63 15.492 3.166 4.681 7.718 8.781 11.618 12.845 4.597 4.79 9.02 9.6 12.444 15.328 1.62 2.71 2.084 5.963 3.43 8.81.955 2.02 3.614 3.567 5.222 5.029 4.165 3.782 3.267 12.192 4.801 17.413 1.511 5.148 4.644 9.47 7.836 13.692 5.331 7.056 12.655 16.099 21.951 17.596 1.173.19 1.676-1.601.493-1.792" fill="#8b6c49"/><path d="M721.73 144.552c-3.8.341-7.498.324-11.215-.661-3.516-.932-5.62-4.364-8.902-5.716-8.198-3.382-18.376-1.178-26.988-1.06-1.2.017-1.201 1.876 0 1.86 9.514-.13 21.727-3.056 29.731 3.273 5.265 4.165 10.781 4.756 17.373 4.164 1.184-.107 1.195-1.967 0-1.86M702.379 74.579c-4.407-11.078 4.706-22.855 5.14-34.007.318-8.205-1.659-19.53-8.271-25.079-.912-.765-2.235.543-1.316 1.315 7.859 6.596 8.993 21.183 6.67 30.479-2.207 8.83-7.66 18.628-4.018 27.785.44 1.1 2.237.621 1.795-.493" fill="#8b6c49"/><path d="M704.43 53.315c9.718-5.568 20.343-8.039 31.006-11.087 9.321-2.665 19.18-9.963 29.019-7 1.15.347 1.638-1.447.493-1.792-9.43-2.841-17.088 2.72-25.765 5.685-12.083 4.132-24.474 6.16-35.692 12.588-1.039.596-.103 2.203.94 1.606M632.89 289.275c0 13.864-3.005 256.605-5.173 430.018h39.188c-4.718-158.749-11.165-370.912-12.321-384.773-1.86-22.312-8.677-143.172-6.199-156.808 2.479-13.636 10.538-37.188 19.835-53.923 8.224-14.802 17.901-103.508 20.027-123.794h-3.508C681.32 16.92 668.423 80.413 665.74 88.46c-3.1 9.296-9.917 30.99-12.396 27.891-2.202-2.75-.496-95.504-.084-116.357h-8.61c-.7 18.388-3.314 92.353-.604 106.44 3.098 16.114-3.719 81.813-11.156 83.053-7.438 1.24-19.214-107.225-19.834-122.721-.62-15.495 11.776-52.683 11.776-52.683l-4.338-3.099s-11.156 58.882-13.016 46.486c-.122-.814-.351-1.788-.672-2.895-3.707-12.773-19.7-43.435-25.62-54.581h-8.39c2.674 8.384 9.77 28.872 22.906 55.616 17.354 35.329 37.188 211.972 37.188 233.664" fill="#8b6c49"/><path d="M619.67 155.296c-9.337-1.107-16.477-12.025-22.138-18.612-7.87-9.157-15.956-17.941-24.103-26.827-3.533-3.853-5.294-9.036-8.433-13.188-3.775-4.997-6.105-9.088-7.921-15.093-2.572-8.513-6.232-15.457-14.204-19.95-1.046-.589-1.983 1.017-.939 1.606 11.001 6.199 11.467 16.617 16.143 27.004 2.218 4.925 6.617 8.792 9.213 13.567 2.852 5.244 6.407 8.942 10.605 13.142 7.934 7.934 14.823 16.964 22.107 25.486 5.079 5.938 11.365 13.741 19.67 14.725 1.189.141 1.175-1.72 0-1.86" fill="#8b6c49"/><path d="M582.967 122.096c-2.159-7.467-2.835-16.555-3.039-24.36-.17-6.477 1.49-13.09-1.188-19.248-.477-1.097-2.079-.15-1.605.939 2.877 6.613.48 14.462 1.113 21.43.648 7.156.92 14.796 2.924 21.734.333 1.149 2.127.66 1.795-.495M633.53 257.863c-9.335-1.107-16.477-12.027-22.137-18.612-7.87-9.158-15.956-17.942-24.102-26.827-3.535-3.853-5.296-9.036-8.434-13.19-3.773-4.995-6.106-9.086-7.922-15.091-2.572-8.514-6.232-15.458-14.203-19.951-1.045-.588-1.983 1.017-.939 1.607 11.002 6.198 11.466 16.617 16.142 27.004 2.218 4.925 6.617 8.792 9.213 13.565 2.855 5.245 6.407 8.944 10.605 13.144 7.935 7.933 14.826 16.964 22.108 25.485 5.078 5.939 11.366 13.742 19.668 14.724 1.19.142 1.176-1.72 0-1.858" fill="#8b6c49"/><path d="M596.827 224.663c-2.158-7.467-2.835-16.556-3.038-24.362-.169-6.476 1.492-13.089-1.189-19.246-.476-1.098-2.077-.15-1.605.938 2.877 6.612.481 14.463 1.113 21.43.648 7.157.92 14.796 2.924 21.734.333 1.15 2.127.66 1.795-.494M580.392 100.499c2.26-4.878 9.08-6.355 12.664-10.142.823-.87-.49-2.188-1.315-1.314-3.725 3.94-10.562 5.357-12.954 10.518-.5 1.08 1.101 2.026 1.605.938M592.645 131.364c-11.689-4.732-27.45 4.95-35.805-7.424-.667-.988-2.279-.059-1.605.939 9.04 13.39 24.45 3.232 36.916 8.277 1.113.45 1.592-1.35.494-1.792M620.979 145.73c2.446-6.5 7.148-11.774 9.925-18.123 2.71-6.195 4.287-14.088 4.979-20.796.774-7.507-.206-14.214-1.744-21.542-1.784-8.484-.438-17.156-2.416-25.566-.275-1.167-2.068-.672-1.795.493 1.676 7.115.468 14.37 1.68 21.532 1.56 9.219 3.47 17.55 2.145 26.984-.985 7.036-2.796 14.89-5.998 21.237-2.654 5.259-6.474 9.72-8.57 15.286-.422 1.124 1.375 1.605 1.794.494" fill="#8b6c49"/><path d="M631.31 124.576c-1.895-8.128-7.558-14.593-9.614-22.721-1.835-7.26-5.39-14.747-10.241-20.455-9.155-10.772-24.444-16.847-37.404-21.52-1.131-.408-1.614 1.39-.494 1.793 13.019 4.695 26.97 10.763 36.582 21.042 5.377 5.746 8.397 14.221 10.285 21.694 1.872 7.395 7.353 13.206 9.092 20.66.273 1.168 2.065.674 1.793-.493M740.495-.005c-1.028 1.666-2.148 3.281-3.516 4.756-4.472 4.821-9.236 9.365-13.635 14.254-6.832 7.598-15.908 13.78-19.96 23.519-5.273 12.67-3.25 27.17-10.736 39.1-6.17 9.833-16.347 16.192-21.512 26.821-.521 1.074 1.081 2.016 1.605.938 4.846-9.968 13.903-16.627 20.482-25.335 8.098-10.719 7.229-25.056 10.602-37.487 3.178-11.712 14.576-19.284 22.302-27.872 4.345-4.83 9.096-9.31 13.516-14.077 1.284-1.385 2.318-2.967 3.264-4.617h-2.412M656.381 379.576s34.726-63.281 46.672-98.61c11.947-35.329-12.593-65.08-13.029-81.814h-3.865s21.062 52.683 16.894 63.84c-4.168 11.156-.449 14.564-9.746 32.85-9.296 18.283-37.428 69.425-37.428 69.425l-4.099 14.309h4.601M951.584 177.712c2.48 13.636-4.337 134.496-6.199 156.808-1.154 13.861-7.601 226.024-12.32 384.773h39.187c-2.168-173.413-5.172-416.154-5.172-430.018 0-21.692 19.833-198.335 37.187-233.664 13.137-26.744 20.233-47.232 22.908-55.616h-8.391c-5.921 11.146-21.915 41.808-25.621 54.581-.32 1.107-.55 2.081-.672 2.895-1.859 12.396-13.016-46.486-13.016-46.486l-4.338 3.099s12.395 37.188 11.776 52.683c-.62 15.496-12.396 123.961-19.833 122.721-7.439-1.24-14.256-66.939-11.157-83.053 2.71-14.087.096-88.052-.606-106.44h-8.609c.413 20.853 2.117 113.606-.083 116.357-2.48 3.099-9.297-18.595-12.396-27.89-2.682-8.049-15.578-71.54-18.997-88.467h-3.508c2.125 20.286 11.803 108.992 20.027 123.794 9.296 16.735 17.354 40.287 19.833 53.923" fill="#8b6c49"/><path d="M980.301 155.296c9.336-1.107 16.476-12.025 22.136-18.612 7.871-9.157 15.958-17.941 24.103-26.827 3.535-3.853 5.296-9.036 8.433-13.188 3.776-4.997 6.107-9.088 7.923-15.093 2.572-8.513 6.232-15.457 14.203-19.95 1.045-.589 1.984 1.017.938 1.606-11.001 6.199-11.465 16.617-16.141 27.004-2.219 4.925-6.617 8.792-9.213 13.567-2.854 5.244-6.407 8.942-10.606 13.142-7.934 7.934-14.824 16.964-22.106 25.486-5.079 5.938-11.367 13.741-19.67 14.725-1.189.141-1.176-1.72 0-1.86" fill="#8b6c49"/><path d="M1017.004 122.096c2.157-7.467 2.835-16.555 3.037-24.36.17-6.477-1.49-13.09 1.19-19.248.476-1.097 2.077-.15 1.605.939-2.877 6.613-.48 14.462-1.113 21.43-.648 7.156-.92 14.796-2.924 21.734-.334 1.149-2.127.66-1.795-.495M966.44 257.863c9.336-1.107 16.477-12.027 22.137-18.612 7.871-9.158 15.955-17.942 24.103-26.827 3.533-3.853 5.295-9.036 8.433-13.19 3.774-4.995 6.106-9.086 7.922-15.091 2.572-8.514 6.232-15.458 14.204-19.951 1.045-.588 1.982 1.017.938 1.607-11.001 6.198-11.466 16.617-16.142 27.004-2.219 4.925-6.618 8.792-9.214 13.565-2.853 5.245-6.405 8.944-10.605 13.144-7.933 7.933-14.824 16.964-22.108 25.485-5.077 5.939-11.364 13.742-19.668 14.724-1.19.142-1.176-1.72 0-1.858" fill="#8b6c49"/><path d="M1003.143 224.663c2.158-7.467 2.834-16.556 3.038-24.362.17-6.476-1.492-13.089 1.188-19.246.478-1.098 2.079-.15 1.606.938-2.878 6.612-.482 14.463-1.114 21.43-.648 7.157-.92 14.796-2.924 21.734-.333 1.15-2.126.66-1.794-.494M1019.579 100.499c-2.262-4.878-9.082-6.355-12.664-10.142-.824-.87.489-2.188 1.314-1.314 3.726 3.94 10.563 5.357 12.955 10.518.5 1.08-1.101 2.026-1.605.938M1007.324 131.364c11.69-4.732 27.45 4.95 35.807-7.424.666-.988 2.278-.059 1.605.939-9.041 13.39-24.45 3.232-36.917 8.277-1.114.45-1.591-1.35-.495-1.792M978.99 145.73c-2.446-6.5-7.146-11.774-9.923-18.123-2.71-6.195-4.287-14.088-4.98-20.796-.775-7.507.206-14.214 1.745-21.542 1.784-8.484.436-17.156 2.416-25.566.275-1.167 2.067-.672 1.793.493-1.676 7.115-.466 14.37-1.68 21.532-1.558 9.219-3.468 17.55-2.145 26.984.985 7.036 2.797 14.89 5.999 21.237 2.653 5.259 6.474 9.72 8.57 15.286.422 1.124-1.374 1.605-1.794.494" fill="#8b6c49"/><path d="M968.66 124.576c1.896-8.128 7.557-14.593 9.613-22.721 1.835-7.26 5.39-14.747 10.243-20.455 9.155-10.772 24.444-16.847 37.403-21.52 1.13-.408 1.613 1.39.494 1.793-13.018 4.695-26.969 10.763-36.582 21.042-5.376 5.746-8.398 14.221-10.286 21.694-1.87 7.395-7.352 13.206-9.09 20.66-.274 1.168-2.066.674-1.795-.493M907.321 81.624c-7.485-11.93-5.461-26.43-10.736-39.1-4.052-9.739-13.126-15.921-19.958-23.519-4.399-4.889-9.163-9.433-13.636-14.254-1.368-1.475-2.487-3.09-3.516-4.756h-2.411c.945 1.65 1.979 3.232 3.263 4.617 4.421 4.767 9.172 9.247 13.517 14.077 7.725 8.588 19.124 16.16 22.3 27.872 3.375 12.431 2.504 26.768 10.604 37.487 6.577 8.708 15.635 15.367 20.481 25.335.523 1.078 2.127.136 1.606-.938-5.166-10.629-15.343-16.988-21.514-26.821" fill="#8b6c49"/><path d="M831.137 256.633c0 8.9-10.738 277.302-18.197 462.66h33.017c-2.14-206.081-4.412-524.193 1.707-541.994 9.09-26.444 7.439-53.716 20.248-60.327 12.808-6.612 78.521-60.74 85.539-74.79 5.474-10.96 9.192-33.02 10.562-42.187h-4.025c-2.407 10.713-9.453 39.072-18.115 46.733-10.742 9.503-56.193 42.972-66.11 51.65-9.916 8.677-9.918-.826-7.851-3.513 1.97-2.561 32.877-64.786 28.208-94.87h-7.796c-.992 13.173-5.768 55.1-27.437 86.4-26.031 37.6-19.008 77.681-21.899 81.4-2.893 3.718-8.265-61.567-8.265-67.764 0-5.431-8.248-81.336-10.29-100.036h-8.292c2.528 24.564 15.599 150.982 18.582 167.386 3.305 18.182.414 75.616.414 89.252" fill="#8b6c49"/><path d="M813.439 30.779c-1.364-8.688-4.716-16.671-5.859-25.463-.267-2.036-.696-3.776-1.423-5.321h-2.26c3.052 5.257 2.562 13.378 4.387 18.901 2.336 7.072 3.77 13.68 3.81 21.14.055 10.287-.002 21.213 8.469 28.423.908.772 2.229-.538 1.313-1.315-10.933-9.307-6.485-23.936-8.437-36.365" fill="#8b6c49"/><path d="M790.243 1.464c-.396-.505-.772-.995-1.14-1.47h-2.347c1.755 2.085 3.417 4.366 5.725 6.197 4.944 3.92 11.088 5.164 15.27 10.204.768.924 2.076-.4 1.316-1.314-5.138-6.19-13.886-7.317-18.824-13.617M849.247 107.715c-2.53-15.687-3.423-31.84 3.276-46.648 1.705-3.775 4.313-7.058 6.273-10.696 2.483-4.611 3.51-9.814 3.904-14.979.603-7.887-.605-15.892-.677-23.787-.012-1.198 1.846-1.198 1.858 0 .134 14.424 2.71 28.207-4.436 41.478-2.281 4.238-4.985 7.865-6.8 12.394-1.709 4.268-2.542 8.883-3.093 13.422-1.14 9.393-.01 19.044 1.488 28.322.19 1.172-1.603 1.675-1.793.494" fill="#8b6c49"/><path d="M847.688 90.17c-3.875-7.494-15.847-4.862-22.964-6.095-7.776-1.348-14.341-6.059-20.916-10.1-1.019-.627-.085-2.235.94-1.606 8.807 5.415 16.6 10.174 27.261 10.678 6.58.31 13.774-.608 17.284 6.184.55 1.064-1.054 2.004-1.605.938M849.073 77.06c2.438-2.5 5.343-3.51 8.591-4.643 5.672-1.977 6.879-6.06 10.4-10.202 5.77-6.788 16.077-6.079 24.225-6.087 1.199-.001 1.198 1.857 0 1.859-10.029.012-19.422-.315-25.213 9.15-4.176 6.827-11.559 5.978-16.69 11.238-.837.86-2.151-.456-1.313-1.315M832.544 182.501c-8.443-9.452-18.51-18.274-20.625-31.357-1.078-6.676-.112-13.464-1.527-20.11-1.36-6.387-5.823-11.449-9.693-16.458-8.171-10.581-11.168-23.495-22.292-31.65-8.676-6.358-13.431-15.026-17.906-24.573-.505-1.078 1.098-2.022 1.606-.938 2.313 4.934 4.654 9.83 7.738 14.34 3.442 5.032 8.134 8.14 12.778 11.916 9.057 7.366 11.716 19.41 18.565 28.518 3.308 4.402 6.87 8.476 9.295 13.464 2.288 4.704 2.584 9.886 2.708 15.012.206 8.594.89 15.97 5.832 23.288 4.232 6.271 9.813 11.611 14.836 17.234.796.89-.515 2.21-1.315 1.314" fill="#8b6c49"/><path d="M811.325 132.316c-4.01-9.164-16.717-7.064-22.998-14.14-2.242-2.524-3.828-5.03-6.759-6.893-2.61-1.662-5.96-2.226-8.941-2.815-5.988-1.185-11.563-2.17-16.751-5.57-.997-.653-.067-2.265.94-1.605 9.652 6.326 23.42 3.372 30.91 13.143 4.175 5.445 8.045 6.685 14.362 8.65 4.613 1.433 8.84 3.714 10.843 8.291.476 1.087-1.126 2.035-1.606.939" fill="#8b6c49"/><path d="M785.684 114.595c-2.71-.227-4.913-.152-7.028 1.754-1.37 1.235-2.49 2.915-4.072 3.904-4.284 2.678-8.757 3.047-13.692 3.432-1.197.094-1.188-1.766 0-1.858 6.89-.539 11.507-1.835 16.45-6.794 2.34-2.345 5.177-2.562 8.342-2.297 1.185.1 1.196 1.96 0 1.859M813.121 137.561c7.882-2.268 7.252-11.641 10.187-17.753 2.979-6.205 7.56-9.05 13.779-11.584 1.109-.452 1.59 1.347.494 1.792-4.444 1.812-8.292 3.739-11.113 7.78-2.21 3.165-2.897 7.265-3.975 10.9-1.436 4.855-3.757 9.185-8.878 10.659-1.155.332-1.644-1.463-.494-1.794M893.044 84.908c1.133-4.07 3.163-7.487 5.39-11.057 3.25-5.208 5.149-10.482 6.42-16.447.791-3.719 1.966-6.832 3.918-10.079 3.44-5.73 3.373-10.678 3.248-17.125-.024-1.2 1.836-1.197 1.859 0 .092 4.627.608 9.064-1.006 13.48-1.59 4.353-4.497 7.707-5.777 12.297-1.292 4.642-1.967 9.151-4.087 13.532-2.622 5.419-6.534 10.007-8.17 15.894-.32 1.153-2.115.662-1.795-.495M926.48 60.776c-.056-5.293-.397-10.536.341-15.795.752-5.366 4.134-10.169 7.174-14.476 3.149-4.462 7.272-8.189 11.408-11.708 5.209-4.43 7.118-10.281 10.542-15.924.622-1.024 2.23-.09 1.606.938-2.374 3.91-3.758 8.67-6.756 12.17-3.375 3.939-7.56 7.251-11.31 10.835-4.521 4.324-8.668 10.845-10.48 16.833-1.626 5.37-.724 11.6-.665 17.127.015 1.2-1.845 1.199-1.86 0" fill="#8b6c49"/><path d="M936.168-.005h-2.895c5.595 4.74 11.307 9.34 17.032 13.921.927.741 2.252-.565 1.315-1.315-5.19-4.153-10.359-8.334-15.452-12.606M948.072 18.527c7.592-.058 15.04-.926 22.477-2.446 1.171-.24 1.668 1.552.494 1.792-7.603 1.555-15.206 2.454-22.971 2.512-1.201.01-1.2-1.849 0-1.858M932.313 64.105c8.536-5.37 18.74-7.798 28.468-9.993 5.278-1.19 10.595-1.96 15.915-2.91 7.199-1.285 12.345-5.771 18.408-9.39 4.425-2.643 9.841-3.88 14.565-5.912 6.207-2.67 11.567-6.843 15.358-12.47 5.473-8.127 10.485-17.673 19.676-22.13 1.073-.521 2.017 1.081.938 1.605-10.266 4.979-14.545 16.092-21.304 24.555-6.336 7.93-16.008 10.995-25.106 14.51-5.802 2.242-10.478 6.617-16.088 9.29-5.107 2.433-11.344 2.488-16.824 3.58-11.184 2.227-23.3 4.725-33.067 10.87-1.017.642-1.95-.967-.939-1.605" fill="#8b6c49"/><path d="M939.805 61.499c14.518.306 27.788 6.068 41.568 9.95 1.155.324.663 2.119-.493 1.794-13.617-3.836-26.723-9.583-41.075-9.884-1.196-.026-1.198-1.886 0-1.86M844.525 192.104c10.075-1.624 17.862-12.477 23.408-20.233 3.97-5.548 6.439-11.83 6.651-18.699.117-3.801 1.29-6.365 3.707-9.292 2.658-3.221 4.674-3.184 6.233-7.941.89-2.718 1.677-4.768 3.161-7.247 2.771-4.636 6.619-8.639 10.314-12.532 3.988-4.201 8.034-8.365 11.813-12.759 4.09-4.753 5.439-11.272 8.533-16.649.598-1.039 2.204-.103 1.606.939-2.886 5.01-4.383 10.69-7.632 15.492-3.166 4.681-7.718 8.781-11.618 12.845-4.597 4.79-9.018 9.6-12.444 15.328-1.618 2.71-2.082 5.963-3.43 8.81-.955 2.02-3.614 3.567-5.222 5.029-4.165 3.782-3.265 12.192-4.8 17.413-1.51 5.148-4.645 9.47-7.836 13.692-5.33 7.056-12.656 16.099-21.95 17.596-1.174.19-1.676-1.601-.494-1.792" fill="#8b6c49"/><path d="M878.241 144.552c3.798.341 7.498.324 11.215-.661 3.516-.932 5.62-4.364 8.901-5.716 8.199-3.382 18.376-1.178 26.988-1.06 1.199.017 1.2 1.876 0 1.86-9.514-.13-21.726-3.056-29.73 3.273-5.266 4.165-10.782 4.756-17.374 4.164-1.184-.107-1.196-1.967 0-1.86M897.59 74.579c4.409-11.078-4.706-22.855-5.138-34.007-.319-8.205 1.659-19.53 8.27-25.079.913-.765 2.235.543 1.315 1.315-7.857 6.596-8.993 21.183-6.67 30.479 2.209 8.83 7.661 18.628 4.018 27.785-.438 1.1-2.237.621-1.794-.493" fill="#8b6c49"/><path d="M895.539 53.315c-9.718-5.568-20.343-8.039-31.006-11.087-9.321-2.665-19.178-9.963-29.017-7-1.152.347-1.64-1.447-.493-1.792 9.43-2.841 17.088 2.72 25.765 5.685 12.081 4.132 24.472 6.16 35.69 12.588 1.04.596.105 2.203-.94 1.606" fill="#8b6c49"/><path d="M29.534 64.881s-9.141 4.184-13.79-6.508c0 0 7.283-3.409 10.381.775 3.1 4.184 3.41 5.733 3.41 5.733" fill="#cf6130"/><path d="M28.682 64.288s-6.508-7.592 0-12.705c0 0 7.284 4.802 0 12.705M38.085 69.97s-9.713-5.373-13.277 2.066c0 0 5.482 5.473 13.277-2.067" fill="#cf6130"/><path d="M41.079 72.655s-2.634-8.058 7.282-8.367c0 0 1.485 7.425-7.282 8.367M48.625 90.244s-2.633-8.059 7.283-8.368c0 0 1.486 7.425-7.283 8.368M46.657 88.756s-3.719-5.283-11.001 0c0 0 4.958 4.633 11 0M52.157 99.079s-3.719-5.284-11.001 0c0 0 4.958 4.633 11 0M101.539 154.787s-3.492-5.467-12.788 0c0 0 6.569 6.825 12.788 0" fill="#f1ac28"/><path d="M83.482 134.945c.043-.514-9.38-3.305-11.87 4.443 0 0-1.66 2.479-3.417 1.343 0 0 14.15 7.541 15.287-5.786" fill="#cf6130"/><path d="M70.605 119.745c.043-.514-9.38-3.305-11.87 4.443 0 0-1.662 2.477-3.418 1.341 0 0 14.151 7.542 15.288-5.784M59.896 109.148c.044-.515-9.38-3.305-11.87 4.443 0 0-1.66 2.478-3.417 1.342 0 0 14.15 7.54 15.287-5.785" fill="#b9a233"/><path d="M45.58 125.345c.43-.286-3.245-9.401-10.86-6.532 0 0-2.975.239-3.179-1.842 0 0 2.897 15.772 14.04 8.374" fill="#cf6130"/><path d="M62.775 132.061s-7.802.612-8.629 7.947c0 0 6.518.224 8.63-7.947M85.446 136.301s-1.445-4.377 2.48-7.928c0 0 1.446 4.636-2.48 7.928" fill="#b9a233"/><path d="M81.872 89.45s-4.815-2.445.052-8.02c0 0 4.896 5.747-.052 8.02" fill="#f1ac28"/><path d="M65.74 79.427s-7.191-2.959 1.557-12.044c0 0 5.21 8.586-1.557 12.044" fill="#cf6130"/><path d="M116.598 129.47s2.25-6.207 10.462-6.225c0 0-.935 7.046-10.462 6.224" fill="#b9a233"/><path d="M42.792 1.47S37.19-.889 34.71 4.38c0 0 5.783 4.248 8.082-2.912" fill="#f1ac28"/><path d="M52.302 10.51s-4.56-4.115-11.541-.706c0 0 7.283 4.975 11.54.705" fill="#cf6130"/><path d="M57.49 16.059s.296-6.868 7.901-8.424c0 0-.31 6.468-7.902 8.424" fill="#b9a233"/><path d="M62.96 25.79s-7.795-4.729-13.064 3.51c0 0 10.323 3.8 13.064-3.51" fill="#cf6130"/><path d="M225.752 178.741s-4.017-6.157-9.75 0c0 0 .75 6.55 9.75 0M259.32 176.188s-6.315.377-3.187-9.11c0 0 6.039.875 3.187 9.11" fill="#f1ac28"/><path d="M270.855 163.513s.493-7.902 11.79-4.028c0 0-5.592 10.227-11.79 4.028" fill="#cf6130"/><path d="M274.516 151.39s-7.225 1.587-7.845-5.54c0 0 6.238-4.262 7.845 5.54" fill="#cd5e2b"/><path d="M276.75 138.103s-.007 13.014 11.149 12.24c0 0 2.649-12.86-11.15-12.24M288.984 123.69s-1.705 9.454 9.452 6.82c0 0-.312-9.366-9.452-6.82" fill="#f1ac28"/><path d="M327.565 123.25s-5.732 4.78 2.324 8.654c0 0 5.523-5.841-2.324-8.653" fill="#cf6130"/><path d="M327.684 121.827s.656-6.547 9.953-3.658c0 0-4.101 8.455-9.953 3.658M320.683 68.693s-7.683-2.59-2.57-11.76c0 0 6.068 2.162 2.57 11.76M319.064 74.104s8.812-5.892 16.559 0c0 0-9.875 8.673-16.559 0" fill="#b9a233"/><path d="M308.041 82.01c-.112.347-6.313-2.48-3.698-11.311 0 0 6.33 3.096 3.698 11.31" fill="#f1ac28"/><path d="M164.161 137.904s-2.546-4.965-9.209.965c0 0 4.576 5.588 9.21-.965" fill="#cf6130"/><path d="M177.279 137.735s-11.892-5.935-5.075-15.851c0 0 12.01 1.952 5.075 15.85" fill="#b9a233"/><path d="M185.057 137.735s-8.928-3.388-12.853 8.87c0 0 12.28 1.402 12.853-8.87" fill="#f1ac28"/><path d="M190.22 138.175s-5.62-5.936 4.296-10.598c0 0 5.25 8.707-4.296 10.598" fill="#b9a233"/><path d="M217.703 167.077s-5.27-9.848 6.432-15.537c0 0 4.36 9.288-6.432 15.537" fill="#cd5e2b"/><path d="M211.756 150.376s-10.63-3.7-14.968 6.01c0 0 9.481 5.129 14.968-6.01" fill="#f1ac28"/><path d="M298.181 4.265s1.804 4.144 8.002 3.215v.93s-7.592-.158-9.607-3.798l1.605-.347" fill="#6f5d4f"/><path d="M306.183 7.48s8.832-8.677 14.642 4.959c0 0-13.481 2.478-14.642-4.959" fill="#f1ac28"/><path d="M283.495 11.52s-5.099-3.887 2.442-9.568c0 0 4.204 5.293-2.442 9.568M289.759 8.797s10.64-3.332 13.532 6.584c0 0-10.331 3.771-13.532-6.584M278.144 26.421s7.276-8.714 14.713-1.897c0 0-7.268 9.528-14.713 1.897" fill="#cf6130"/><path d="M275.193 49.005s2.84-5.577 12.886-7.437c0 0-3.744 11.156-12.886 7.437" fill="#b9a233"/><path d="M246.103 83.868s-5.31-10.225 1.353-14.408c0 0 7.21 7.279-1.353 14.408M225.488-.005c-6.395 5.581-.793 11.61-.793 11.61 5.764-4.781 2.008-10.49 1.177-11.61h-.384" fill="#f1ac28"/><path d="M225.713 14.66s-.542-4.545 6.96-4.339c0 0-1.164 5.795-6.96 4.339M224.68 25.196s-5.855.14-5.888-6.612c0 0 4.817-1.344 5.888 6.612M225.123 37.179s3.068-8.231 12.572-4.53c0 0-7.788 8.662-12.572 4.53" fill="#cf6130"/><path d="M253.06 35.228s-2.763-7.677 5.708-9.579c0 0 2.983 9.906-5.708 9.579M239.773 36.12s7.631-2.247 9.284 6.43c0 0-7.414 1.291-9.284-6.43" fill="#b9a233"/><path d="M283.665 73.23s-1.342-8.229 10.434-10.415c0 0-4.546 13.204-10.434 10.416" fill="#cf6130"/><path d="M273.179 78.655s-2.634-2.044 1.24-7.17c0 0 2.584 3.282-1.24 7.17" fill="#b9a233"/><path d="M271.359 81.715s10.808-3.888 14.836 5.021c0 0-9.606 3.592-14.836-5.021" fill="#f1ac28"/><path d="M252.932 109.848s-9.321 2.184-9.783-5.539c0 0 6.194-4.262 9.783 5.539M255.121 109.86s1.012-8.172 12.48-4.297c0 0-6.182 8.206-12.48 4.297" fill="#b9a233"/><path d="M267.601 128.34s-4.104-6.63 3.758-10.907c0 0 2.75 6.414-3.758 10.907M276.11 132.803s-6.34-2.448-2.931-11.591c0 0 5.864 1.488 2.932 11.59" fill="#f1ac28"/><path d="M289.012 109.86s-8.55 2.675-8.86-7.707c0 0 7.959-1.632 8.86 7.707" fill="#cf6130"/><path d="M294.244 104.52s2.659-6.86 11.947-4.845c0 0-6.53 7.832-11.947 4.845M330.82 102.252s-5.923-1.803 2.307-7.225c0 0 3.505 5.153-2.307 7.225" fill="#f1ac28"/><path d="M330.341 104.272s-1.226-5.837 7.296-6.612c0 0-.026 8.73-7.296 6.612M315.288 107.421s-3.525-5.784 2.465-10.845c0 0 3.335 7.127-2.465 10.845M303.7 113.93s-6.605-.4-4.747-5.778c0 0 5.568-.833 4.747 5.777" fill="#cf6130"/><path d="M312.175 117.433s-4.855 3.728-.619 8.996c0 0 4.233-4.15.619-8.996" fill="#ded786"/><path d="M62.657 59.88s-9.134-5.44-17.043-.332c0 0 7.49 7.539 17.043.332" fill="#f1ac28"/><path d="M69.211 62.319s-2.686-5.767 4.859-9.026c0 0 .924 7.102-4.859 9.026" fill="#b9a233"/><path d="M80.99 68.995s-5.992-1.756-8.264 4.286c0 0 4.235 2.428 8.264-4.286" fill="#f1ac28"/><path d="M68.195 98.933s-8.663 1.671-8.058-7.161c0 0 7.917-2.1 8.058 7.161M72.726 94.868s11.217 2.172 9.146 11.159c0 0-7.7-1.088-9.146-11.159" fill="#b9a233"/><path d="M45.275 166.815s-9.142 4.182-13.79-6.508c0 0 7.283-3.41 10.382.774 3.099 4.184 3.408 5.734 3.408 5.734" fill="#cf6130"/><path d="M44.422 166.221s-6.507-7.592 0-12.705c0 0 7.283 4.803 0 12.705M53.826 171.901s-9.713-5.37-13.277 2.067c0 0 5.482 5.473 13.277-2.067M56.82 174.588s-2.636-8.057 7.282-8.367c0 0 1.484 7.426-7.282 8.367" fill="#b9a233"/><path d="M64.367 192.176s-2.635-8.057 7.282-8.367c0 0 1.486 7.426-7.282 8.367" fill="#f1ac28"/><path d="M62.398 190.69s-3.719-5.283-11.003 0c0 0 4.959 4.633 11.003 0" fill="#b9a233"/><path d="M67.898 201.01s-3.719-5.282-11.002 0c0 0 4.959 4.635 11.002 0" fill="#cf6130"/><path d="M99.223 236.879c.043-.516-9.38-3.306-11.87 4.441 0 0-1.66 2.479-3.418 1.343 0 0 14.151 7.541 15.288-5.784" fill="#f1ac28"/><path d="M86.346 221.679c.043-.516-9.38-3.306-11.87 4.441 0 0-1.661 2.479-3.418 1.343 0 0 14.15 7.541 15.288-5.784M75.637 211.08c.043-.515-9.381-3.305-11.87 4.443 0 0-1.66 2.478-3.419 1.342 0 0 14.153 7.542 15.29-5.785" fill="#cf6130"/><path d="M105.62 260.953c.429-.286-3.247-9.401-10.863-6.532 0 0-2.974.24-3.177-1.842 0 0 2.897 15.773 14.04 8.374" fill="#f1ac28"/><path d="M62.456 237.968s-7.803.61-8.63 7.945c0 0 6.518.224 8.63-7.945" fill="#cf6130"/><path d="M81.955 213.657s-3.027-4.472 3.93-6.99c0 0 1.498 7.398-3.93 6.99" fill="#b9a233"/><path d="M81.481 181.359s-7.191-2.959 1.558-12.043c0 0 5.208 8.587-1.558 12.043" fill="#f1ac28"/><path d="M82.745 199.544s-8.662 1.67-8.057-7.163c0 0 7.917-2.101 8.057 7.163" fill="#b9a233"/><path d="M98.67 223.483s7.833 8.318.9 14.401c0 0-5.611-5.385-.9-14.401" fill="#f1ac28"/><path d="M112.731 108.39s-5.74-6.797 9.098-13.075c0 0 .228 13.216-9.098 13.074" fill="#cf6130"/><path d="M108.678 71.024S101.958 65.519 94.52 78c0 0 13.852.427 14.157-6.976" fill="#f1ac28"/><path d="M118.708 61.012s-12.203-10.817-4.353-21.767c0 0 11.161 12.722 4.353 21.767M120.908 73.955s-.118-7.268 9.975-10.955c0 0 .713 9.51-9.975 10.955" fill="#b9a233"/><path d="M118.027 16.081s3.458-8.601-6.305-8.912c0 0-3.814 8.991 6.305 8.912" fill="#f1ac28"/><path d="M121.637 18.223s-7.902-4.391-7.902 5.526c0 0 8.057 1.343 7.902-5.526" fill="#b9a233"/><path d="M151.279 3.384S157.12.26 161.305 6.736c0 0-5.332 4.019-10.026-3.352M189.91 118.17s-6.962-9.454 3.78-15.473c0 0 6.282 11.55-3.78 15.472M170.095 87.479s-11.658 1.605-10.456-10.815c0 0 10.62-2.104 10.456 10.815M237.016 102.697s-10.684-4.778-6.347-17.588c0 0 10.419 1.708 6.347 17.588" fill="#cf6130"/><path d="M235.423 61.676s-4.334-11.527 11.773-14.168c0 0 .416 13.047-11.773 14.168" fill="#b9a233"/><path d="M174.697 30.2s-7.422-7.37 2.582-14.141c0 0 7.969 11.913-2.582 14.141" fill="#cf6130"/><path d="M236.75-.005c3.075 1.389 7.077.777 9.933 0h-9.932M190.537 73.281s-5.01-6.765 7.542-8.625c0 0 2.642 8.825-7.542 8.625" fill="#b9a233"/><path d="M181.732 211.897s6.07-10.576 16.916-16.464c10.847-5.888 3.099-19.428 3.099-19.428s5.58 13.571-2.272 17.946c-7.852 4.376-18.486 14.088-18.491 17.946h.748" fill="#8b6c49"/><path d="M196.287 56.128s-7.992-4.787-13.895 3.42c0 0 9.7 5.005 13.895-3.42M211.508 57.881s-2.307-6.745 5.113-11.2c0 0 5.268 7.526-5.113 11.2M220.648 65.86s-9.295-2.265-12.393 5.625c0 0 10.066 2.086 12.393-5.625" fill="#b9a233"/><path d="M186.539 16.808s-5.659 1.156-5.762-9.69c0 0 8.114 2.542 5.762 9.69" fill="#f1ac28"/><path d="M190.361 21.43s-2.87-2.731-7.105 0c0 0 1.505 3.982 7.105 0" fill="#cf6130"/><path d="M144.168-.005c-1.933 3.814 1.088 5.932 1.088 5.932 2.064-2.851 2.065-4.747 1.55-5.932h-2.638M143.517 8.77s6.888-3.098 9.576 4.34c0 0-6.445 3.82-9.576-4.34" fill="#f1ac28"/><path d="M153.093 29.381s-4.946-6.633 6.459-12.126c0 0 3.148 11.252-6.459 12.126" fill="#cf6130"/><path d="M93.472 41.812s-8.797-8.957 0-21.257c0 0 9.163 7.458 0 21.257" fill="#b9a233"/><path d="M108.678 50.385s-11.21-1.561-11.134 11.934c0 0 11.345-3.582 11.134-11.934" fill="#cf6130"/><path d="M237.96 70.699c.161.694-12.304 1.258-13.825-9.675 0 0 11.817 1.05 13.825 9.675M226.088 45.667s-9.875-.676-8.51-13.018c0 0 9.3 2.551 8.51 13.018M274.577 37.704s-10.202-2.932-9.094-13.19c0 0 8.48 1.887 9.094 13.19" fill="#b9a233"/><path d="M298.436 93.904s-10.665-2.825-7.115-12.473c0 0 7.735.04 7.115 12.473" fill="#cf6130"/><path d="M204.053 135.939s-3.338-7.346 6.166-12.25c0 0 4.161 7.71-6.166 12.25M179.837 107.717s-10.616 7.763-15.013-.296c0 0 4.275-8.146 15.013.296M123.977 101.852s1.947-10.024 11.244-10.284c0 0-1.974 12.648-11.244 10.284M120.908 82.041c.431.802-8.825 2.863-10.892-5.505 0 0 6.703-2.315 10.892 5.505M107.727 98.125s-8.868-4.921-13.206 2.498c0 0 5.545 5.765 13.206-2.498M158.284 40.165s-8.136 5.084-13.636-1.87c0 0 6.82-6.118 13.636 1.87M178.815 47.508s-5.643-7.668 6.242-11.453c0 0 4.139 9.18-6.242 11.453M184.548 64.656s-10.072 6.193-13.325-3.644c0 0 7.729-5.55 13.325 3.644" fill="#b9a233"/><path d="M208.255 22.83s-6.043-5.022-2.944-12.123c0 0 6.166 3.536 2.944 12.124" fill="#cf6130"/><path d="M215.804-.005c-2.235 5.616 2.988 12.84 2.988 12.84 4.79-5.951 3.285-10.318 1.355-12.84h-4.343" fill="#b9a233"/><path d="M211.17 21.708s8.607-3.621 10.82 3.941c0 0-8.526 5.484-10.82-3.941" fill="#f1ac28"/><path d="M91.687 143.441s-3.052-4.817 3.971-11.38c0 0 3.01 9.179-3.971 11.38M64.152 60.421s-7.534-2.17-10.017 6.095c0 0 8.157 1.139 10.017-6.095" fill="#b9a233"/><path d="M65.184 61.499s-6.71 1.194-6.041-9.032c0 0 8.106 1.433 6.041 9.032" fill="#cf6130"/><path d="M69.623 31.183s-8.352-.779-10.527 7.825c0 0 9.078.641 10.527-7.825M62.657 22.09s6.962-1.451 6.966-7.954c0 0-5.624 1.704-6.966 7.953M273.788 57.881s-11.612 1.166-15.64-8.117c0 0 13.152-2.995 15.64 8.117" fill="#b9a233"/><path d="M326.43 58.975s-2.175-8.515 7.743-9.578c0 0 .21 8.958-7.744 9.578" fill="#eae99e"/><path d="M265.172 168.679s-6.612-5.786-2.685-12.603c0 0 6.853 4.187 2.685 12.603M263.88 121.212s-6.197-5.879-10.69 2.561c0 0 5.883 4.258 10.69-2.561" fill="#f1ac28"/><path d="M268.53 132.803s-9.625-2.336-10.855 5.277c0 0 6.05 3.059 10.856-5.277" fill="#cd5e2b"/><path d="M255.121 83.868s-2.344 6.205 5.507 6.77c0 0 .213-7.902-5.507-6.77" fill="#b9a233"/><path d="M262.19 82.356s-3.071-6.647 3.778-9.23c0 0 1.697 7.793-3.779 9.23" fill="#cf6130"/><path d="M278.144 21.425s-8.143-.542-7.832-8.057c0 0 8.232 1.256 7.832 8.057" fill="#f1ac28"/><path d="M238.877 77.741c.139-.358-3.477-2.86-6.204 2.307 0 0 3.976 3.445 6.204-2.307" fill="#b9a233"/><path d="M176.007 99.304s-4.178-8.159 5.668-12.107c0 0 4.309 9.438-5.668 12.107" fill="#f1ac28"/><path d="M190.361 48.385s-8.113-7.637-3.553-16.333c0 0 8.403 4.076 3.553 16.333" fill="#b9a233"/><path d="M125.71 53.663s-6.413-6.774 0-14.418c0 0 8.049 4.664 0 14.418M194.935 196.843s-8.587-5.81-2.23-14.043c0 0 7.727 8.556 2.23 14.043" fill="#f1ac28"/><path d="M203.737 189.821s4.002-5.544 10.2-2.652c0 0-4.49 6.958-10.2 2.652" fill="#cd5e2b"/><path d="M259.263 307.368s31.369-31.981 35.27-59.252c0 0-21.081 48.321-35.436 54.943l-4.628 7.037 4.794-2.728" fill="#6f5d4f"/><path d="M540.928 64.881s-9.141 4.184-13.79-6.508c0 0 7.282-3.409 10.382.775 3.099 4.184 3.408 5.733 3.408 5.733" fill="#cf6130"/><path d="M540.076 64.288s-6.508-7.592 0-12.705c0 0 7.284 4.802 0 12.705M549.479 69.97s-9.714-5.373-13.278 2.066c0 0 5.483 5.473 13.278-2.067" fill="#cf6130"/><path d="M552.472 72.655s-2.633-8.058 7.283-8.367c0 0 1.485 7.425-7.283 8.367M560.02 90.244s-2.635-8.059 7.283-8.368c0 0 1.485 7.425-7.283 8.368M558.05 88.756s-3.718-5.283-11 0c0 0 4.958 4.633 11 0M563.55 99.079s-3.718-5.284-11 0c0 0 4.958 4.633 11 0M612.932 154.787s-3.49-5.467-12.788 0c0 0 6.57 6.825 12.788 0" fill="#f1ac28"/><path d="M594.876 134.945c.043-.514-9.38-3.305-11.87 4.443 0 0-1.66 2.479-3.418 1.343 0 0 14.152 7.541 15.288-5.786" fill="#cf6130"/><path d="M581.999 119.745c.042-.514-9.38-3.305-11.87 4.443 0 0-1.661 2.477-3.418 1.341 0 0 14.15 7.542 15.288-5.784M571.29 109.148c.043-.515-9.38-3.305-11.87 4.443 0 0-1.661 2.478-3.417 1.342 0 0 14.15 7.54 15.288-5.785" fill="#b9a233"/><path d="M556.973 125.345c.431-.286-3.244-9.401-10.86-6.532 0 0-2.974.239-3.178-1.842 0 0 2.897 15.772 14.038 8.374" fill="#cf6130"/><path d="M574.17 132.061s-7.803.612-8.63 7.947c0 0 6.517.224 8.63-7.947M596.84 136.301s-1.445-4.377 2.479-7.928c0 0 1.446 4.636-2.479 7.928" fill="#b9a233"/><path d="M593.265 89.45s-4.814-2.445.052-8.02c0 0 4.896 5.747-.052 8.02" fill="#f1ac28"/><path d="M577.135 79.427s-7.192-2.959 1.557-12.044c0 0 5.21 8.586-1.557 12.044" fill="#cf6130"/><path d="M627.992 129.47s2.25-6.207 10.463-6.225c0 0-.936 7.046-10.463 6.224" fill="#b9a233"/><path d="M554.187 1.47s-5.603-2.358-8.083 2.911c0 0 5.783 4.248 8.083-2.912" fill="#f1ac28"/><path d="M563.695 10.51s-4.559-4.115-11.54-.706c0 0 7.282 4.975 11.54.705" fill="#cf6130"/><path d="M568.883 16.059s.297-6.868 7.902-8.424c0 0-.31 6.468-7.902 8.424" fill="#b9a233"/><path d="M574.355 25.79s-7.796-4.729-13.064 3.51c0 0 10.322 3.8 13.064-3.51" fill="#cf6130"/><path d="M737.145 178.741s-4.016-6.157-9.749 0c0 0 .75 6.55 9.75 0M770.713 176.188s-6.313.377-3.185-9.11c0 0 6.039.875 3.185 9.11" fill="#f1ac28"/><path d="M782.25 163.513s.493-7.902 11.789-4.028c0 0-5.592 10.227-11.79 4.028" fill="#cf6130"/><path d="M785.91 151.39s-7.225 1.587-7.845-5.54c0 0 6.239-4.262 7.846 5.54" fill="#cd5e2b"/><path d="M788.143 138.103s-.006 13.014 11.15 12.24c0 0 2.648-12.86-11.15-12.24M800.377 123.69s-1.704 9.454 9.452 6.82c0 0-.31-9.366-9.452-6.82" fill="#f1ac28"/><path d="M838.96 123.25s-5.733 4.78 2.324 8.654c0 0 5.521-5.841-2.324-8.653" fill="#cf6130"/><path d="M839.079 121.827s.656-6.547 9.952-3.658c0 0-4.102 8.455-9.952 3.658M832.077 68.693s-7.682-2.59-2.569-11.76c0 0 6.068 2.162 2.57 11.76M830.459 74.104s8.81-5.892 16.558 0c0 0-9.876 8.673-16.558 0" fill="#b9a233"/><path d="M819.435 82.01c-.112.347-6.312-2.48-3.698-11.311 0 0 6.331 3.096 3.698 11.31" fill="#f1ac28"/><path d="M675.555 137.904s-2.546-4.965-9.208.965c0 0 4.574 5.588 9.208-.965" fill="#cf6130"/><path d="M688.673 137.735s-11.893-5.935-5.076-15.851c0 0 12.011 1.952 5.076 15.85" fill="#b9a233"/><path d="M696.452 137.735s-8.928-3.388-12.855 8.87c0 0 12.28 1.402 12.855-8.87" fill="#f1ac28"/><path d="M701.613 138.175s-5.62-5.936 4.298-10.598c0 0 5.249 8.707-4.298 10.598" fill="#b9a233"/><path d="M729.096 167.077s-5.27-9.848 6.432-15.537c0 0 4.36 9.288-6.432 15.537" fill="#cd5e2b"/><path d="M723.15 150.376s-10.629-3.7-14.967 6.01c0 0 9.48 5.129 14.966-6.01" fill="#f1ac28"/><path d="M809.576 4.265s1.803 4.144 8.001 3.215v.93s-7.593-.158-9.606-3.798l1.605-.347" fill="#6f5d4f"/><path d="M817.577 7.48s8.832-8.677 14.642 4.959c0 0-13.48 2.478-14.642-4.959" fill="#f1ac28"/><path d="M794.888 11.52s-5.097-3.887 2.443-9.568c0 0 4.204 5.293-2.443 9.568M801.152 8.797s10.641-3.332 13.533 6.584c0 0-10.33 3.771-13.533-6.584M789.537 26.421s7.276-8.714 14.714-1.897c0 0-7.268 9.528-14.714 1.897" fill="#cf6130"/><path d="M786.587 49.005s2.84-5.577 12.885-7.437c0 0-3.743 11.156-12.885 7.437" fill="#b9a233"/><path d="M757.496 83.868s-5.308-10.225 1.355-14.408c0 0 7.208 7.279-1.355 14.408M736.881-.005c-6.394 5.581-.793 11.61-.793 11.61 5.765-4.781 2.008-10.49 1.179-11.61h-.386" fill="#f1ac28"/><path d="M737.107 14.66s-.542-4.545 6.961-4.339c0 0-1.164 5.795-6.961 4.339M736.075 25.196s-5.856.14-5.888-6.612c0 0 4.816-1.344 5.888 6.612M736.517 37.179s3.067-8.231 12.571-4.53c0 0-7.787 8.662-12.57 4.53" fill="#cf6130"/><path d="M764.455 35.228s-2.763-7.677 5.706-9.579c0 0 2.983 9.906-5.706 9.579M751.167 36.12s7.632-2.247 9.285 6.43c0 0-7.416 1.291-9.285-6.43" fill="#b9a233"/><path d="M795.059 73.23s-1.343-8.229 10.433-10.415c0 0-4.545 13.204-10.433 10.416" fill="#cf6130"/><path d="M784.573 78.655s-2.634-2.044 1.239-7.17c0 0 2.585 3.282-1.239 7.17" fill="#b9a233"/><path d="M782.752 81.715s10.808-3.888 14.836 5.021c0 0-9.605 3.592-14.836-5.021" fill="#f1ac28"/><path d="M764.325 109.848s-9.32 2.184-9.782-5.539c0 0 6.194-4.262 9.782 5.539M766.516 109.86s1.012-8.172 12.479-4.297c0 0-6.183 8.206-12.479 4.297" fill="#b9a233"/><path d="M778.995 128.34s-4.104-6.63 3.757-10.907c0 0 2.75 6.414-3.757 10.907M787.504 132.803s-6.34-2.448-2.93-11.591c0 0 5.862 1.488 2.93 11.59" fill="#f1ac28"/><path d="M800.407 109.86s-8.551 2.675-8.862-7.707c0 0 7.96-1.632 8.862 7.707" fill="#cf6130"/><path d="M805.639 104.52s2.658-6.86 11.945-4.845c0 0-6.53 7.832-11.945 4.845M842.213 102.252s-5.921-1.803 2.308-7.225c0 0 3.506 5.153-2.308 7.225" fill="#f1ac28"/><path d="M841.736 104.272s-1.227-5.837 7.295-6.612c0 0-.026 8.73-7.295 6.612M826.683 107.421s-3.527-5.784 2.464-10.845c0 0 3.334 7.127-2.464 10.845M815.093 113.93s-6.605-.4-4.745-5.778c0 0 5.568-.833 4.745 5.777" fill="#cf6130"/><path d="M823.57 117.433s-4.857 3.728-.62 8.996c0 0 4.234-4.15.62-8.996" fill="#ded786"/><path d="M574.05 59.88s-9.133-5.44-17.042-.332c0 0 7.49 7.539 17.043.332" fill="#f1ac28"/><path d="M580.605 62.319s-2.686-5.767 4.859-9.026c0 0 .924 7.102-4.859 9.026" fill="#b9a233"/><path d="M592.384 68.995s-5.992-1.756-8.264 4.286c0 0 4.236 2.428 8.264-4.286" fill="#f1ac28"/><path d="M579.588 98.933s-8.663 1.671-8.057-7.161c0 0 7.917-2.1 8.057 7.161M584.12 94.868s11.217 2.172 9.145 11.159c0 0-7.698-1.088-9.145-11.159" fill="#b9a233"/><path d="M556.67 166.815s-9.142 4.182-13.791-6.508c0 0 7.282-3.41 10.381.774 3.1 4.184 3.41 5.734 3.41 5.734" fill="#cf6130"/><path d="M555.816 166.221s-6.508-7.592 0-12.705c0 0 7.283 4.803 0 12.705M565.22 171.901s-9.713-5.37-13.277 2.067c0 0 5.481 5.473 13.277-2.067M568.213 174.588s-2.634-8.057 7.283-8.367c0 0 1.484 7.426-7.283 8.367" fill="#b9a233"/><path d="M575.76 192.176s-2.633-8.057 7.283-8.367c0 0 1.485 7.426-7.283 8.367" fill="#f1ac28"/><path d="M573.792 190.69s-3.719-5.283-11.003 0c0 0 4.959 4.633 11.003 0" fill="#b9a233"/><path d="M579.292 201.01s-3.719-5.282-11.001 0c0 0 4.958 4.635 11.001 0" fill="#cf6130"/><path d="M610.617 236.879c.043-.516-9.38-3.306-11.869 4.441 0 0-1.663 2.479-3.419 1.343 0 0 14.151 7.541 15.288-5.784" fill="#f1ac28"/><path d="M597.74 221.679c.043-.516-9.38-3.306-11.87 4.441 0 0-1.662 2.479-3.418 1.343 0 0 14.15 7.541 15.288-5.784M587.03 211.08c.045-.515-9.38-3.305-11.869 4.443 0 0-1.661 2.478-3.418 1.342 0 0 14.152 7.542 15.288-5.785" fill="#cf6130"/><path d="M617.013 260.953c.43-.286-3.246-9.401-10.862-6.532 0 0-2.974.24-3.178-1.842 0 0 2.898 15.773 14.04 8.374" fill="#f1ac28"/><path d="M573.85 237.968s-7.803.61-8.63 7.945c0 0 6.519.224 8.63-7.945" fill="#cf6130"/><path d="M593.35 213.657s-3.029-4.472 3.929-6.99c0 0 1.498 7.398-3.93 6.99" fill="#b9a233"/><path d="M592.875 181.359s-7.191-2.959 1.557-12.043c0 0 5.208 8.587-1.557 12.043" fill="#f1ac28"/><path d="M594.139 199.544s-8.663 1.67-8.056-7.163c0 0 7.916-2.101 8.056 7.163" fill="#b9a233"/><path d="M610.064 223.483s7.833 8.318.901 14.401c0 0-5.612-5.385-.901-14.401" fill="#f1ac28"/><path d="M624.125 108.39s-5.741-6.797 9.098-13.075c0 0 .228 13.216-9.098 13.074" fill="#cf6130"/><path d="M620.072 71.024s-6.719-5.505-14.156 6.976c0 0 13.85.427 14.156-6.976" fill="#f1ac28"/><path d="M630.101 61.012S617.9 50.195 625.75 39.245c0 0 11.162 12.722 4.352 21.767M632.303 73.955s-.119-7.268 9.974-10.955c0 0 .712 9.51-9.974 10.955" fill="#b9a233"/><path d="M629.42 16.081s3.459-8.601-6.304-8.912c0 0-3.813 8.991 6.304 8.912" fill="#f1ac28"/><path d="M633.03 18.223s-7.9-4.391-7.9 5.526c0 0 8.057 1.343 7.9-5.526" fill="#b9a233"/><path d="M662.673 3.384S668.516.26 672.7 6.736c0 0-5.332 4.019-10.026-3.352M701.304 118.17s-6.961-9.454 3.78-15.473c0 0 6.281 11.55-3.78 15.472M681.488 87.479s-11.657 1.605-10.456-10.815c0 0 10.62-2.104 10.456 10.815M748.41 102.697s-10.685-4.778-6.346-17.588c0 0 10.417 1.708 6.347 17.588" fill="#cf6130"/><path d="M746.816 61.676s-4.333-11.527 11.773-14.168c0 0 .418 13.047-11.773 14.168" fill="#b9a233"/><path d="M686.09 30.2s-7.422-7.37 2.583-14.141c0 0 7.968 11.913-2.582 14.141" fill="#cf6130"/><path d="M748.145-.005c3.074 1.389 7.076.777 9.932 0h-9.932M701.93 73.281s-5.01-6.765 7.542-8.625c0 0 2.643 8.825-7.541 8.625" fill="#b9a233"/><path d="M693.127 211.897s6.068-10.576 16.914-16.464c10.847-5.888 3.099-19.428 3.099-19.428s5.58 13.571-2.272 17.946c-7.85 4.376-18.485 14.088-18.49 17.946h.749" fill="#8b6c49"/><path d="M707.681 56.128s-7.992-4.787-13.894 3.42c0 0 9.698 5.005 13.894-3.42M722.903 57.881s-2.308-6.745 5.113-11.2c0 0 5.268 7.526-5.113 11.2M732.041 65.86s-9.293-2.265-12.393 5.625c0 0 10.067 2.086 12.393-5.625" fill="#b9a233"/><path d="M697.932 16.808s-5.659 1.156-5.761-9.69c0 0 8.114 2.542 5.761 9.69" fill="#f1ac28"/><path d="M701.755 21.43s-2.871-2.731-7.106 0c0 0 1.506 3.982 7.106 0" fill="#cf6130"/><path d="M655.563-.005c-1.935 3.814 1.086 5.932 1.086 5.932 2.064-2.851 2.066-4.747 1.55-5.932h-2.636M654.912 8.77s6.888-3.098 9.575 4.34c0 0-6.446 3.82-9.575-4.34" fill="#f1ac28"/><path d="M664.487 29.381s-4.947-6.633 6.458-12.126c0 0 3.148 11.252-6.458 12.126" fill="#cf6130"/><path d="M604.865 41.812s-8.796-8.957 0-21.257c0 0 9.163 7.458 0 21.257" fill="#b9a233"/><path d="M620.072 50.385s-11.21-1.561-11.135 11.934c0 0 11.346-3.582 11.135-11.934" fill="#cf6130"/><path d="M749.355 70.699c.161.694-12.306 1.258-13.827-9.675 0 0 11.819 1.05 13.827 9.675M737.481 45.667s-9.874-.676-8.509-13.018c0 0 9.299 2.551 8.51 13.018M785.972 37.704s-10.204-2.932-9.096-13.19c0 0 8.481 1.887 9.096 13.19" fill="#b9a233"/><path d="M809.83 93.904s-10.666-2.825-7.115-12.473c0 0 7.734.04 7.114 12.473" fill="#cf6130"/><path d="M715.447 135.939s-3.339-7.346 6.165-12.25c0 0 4.161 7.71-6.165 12.25M691.232 107.717s-10.617 7.763-15.015-.296c0 0 4.275-8.146 15.015.296M635.37 101.852s1.947-10.024 11.245-10.284c0 0-1.975 12.648-11.244 10.284M632.303 82.041c.43.802-8.827 2.863-10.892-5.505 0 0 6.702-2.315 10.892 5.505M619.121 98.125s-8.869-4.921-13.205 2.498c0 0 5.544 5.765 13.205-2.498M669.679 40.165s-8.138 5.084-13.638-1.87c0 0 6.82-6.118 13.638 1.87M690.208 47.508s-5.641-7.668 6.244-11.453c0 0 4.137 9.18-6.244 11.453M695.941 64.656s-10.072 6.193-13.325-3.644c0 0 7.73-5.55 13.325 3.644" fill="#b9a233"/><path d="M719.648 22.83s-6.043-5.022-2.944-12.123c0 0 6.167 3.536 2.944 12.124" fill="#cf6130"/><path d="M727.196-.005c-2.232 5.616 2.99 12.84 2.99 12.84 4.789-5.951 3.286-10.318 1.354-12.84h-4.344" fill="#b9a233"/><path d="M722.564 21.708s8.608-3.621 10.819 3.941c0 0-8.524 5.484-10.819-3.941" fill="#f1ac28"/><path d="M603.081 143.441s-3.053-4.817 3.971-11.38c0 0 3.01 9.179-3.97 11.38M575.545 60.421s-7.533-2.17-10.017 6.095c0 0 8.159 1.139 10.017-6.095" fill="#b9a233"/><path d="M576.579 61.499s-6.712 1.194-6.043-9.032c0 0 8.107 1.433 6.043 9.032" fill="#cf6130"/><path d="M581.017 31.183s-8.352-.779-10.528 7.825c0 0 9.079.641 10.528-7.825M574.05 22.09s6.963-1.451 6.967-7.954c0 0-5.624 1.704-6.966 7.953M785.183 57.881s-11.612 1.166-15.642-8.117c0 0 13.154-2.995 15.642 8.117" fill="#b9a233"/><path d="M837.823 58.975s-2.175-8.515 7.745-9.578c0 0 .208 8.958-7.745 9.578" fill="#eae99e"/><path d="M776.567 168.679s-6.612-5.786-2.687-12.603c0 0 6.855 4.187 2.687 12.603M775.273 121.212s-6.196-5.879-10.689 2.561c0 0 5.884 4.258 10.69-2.561" fill="#f1ac28"/><path d="M779.924 132.803s-9.624-2.336-10.855 5.277c0 0 6.051 3.059 10.855-5.277" fill="#cd5e2b"/><path d="M766.516 83.868s-2.344 6.205 5.507 6.77c0 0 .213-7.902-5.507-6.77" fill="#b9a233"/><path d="M773.584 82.356s-3.07-6.647 3.777-9.23c0 0 1.698 7.793-3.777 9.23" fill="#cf6130"/><path d="M789.537 21.425s-8.141-.542-7.832-8.057c0 0 8.232 1.256 7.832 8.057" fill="#f1ac28"/><path d="M750.27 77.741c.14-.358-3.475-2.86-6.202 2.307 0 0 3.975 3.445 6.203-2.307" fill="#b9a233"/><path d="M687.401 99.304s-4.178-8.159 5.668-12.107c0 0 4.308 9.438-5.668 12.107" fill="#f1ac28"/><path d="M701.755 48.385s-8.114-7.637-3.554-16.333c0 0 8.403 4.076 3.554 16.333" fill="#b9a233"/><path d="M637.104 53.663s-6.412-6.774 0-14.418c0 0 8.048 4.664 0 14.418M706.328 196.843s-8.585-5.81-2.23-14.043c0 0 7.727 8.556 2.23 14.043" fill="#f1ac28"/><path d="M715.132 189.821s4.001-5.544 10.199-2.652c0 0-4.49 6.958-10.199 2.652" fill="#cd5e2b"/><path d="M770.656 307.368s31.37-31.981 35.27-59.252c0 0-21.08 48.321-35.435 54.943l-4.628 7.037 4.793-2.728" fill="#6f5d4f"/><path d="M1059.041 64.881s9.143 4.184 13.791-6.508c0 0-7.283-3.409-10.381.775-3.099 4.184-3.41 5.733-3.41 5.733" fill="#cf6130"/><path d="M1059.895 64.288s6.508-7.592 0-12.705c0 0-7.284 4.802 0 12.705M1050.49 69.97s9.714-5.373 13.278 2.066c0 0-5.481 5.473-13.277-2.067" fill="#cf6130"/><path d="M1047.497 72.655s2.635-8.058-7.282-8.367c0 0-1.484 7.425 7.282 8.367M1039.95 90.244s2.634-8.059-7.282-8.368c0 0-1.485 7.425 7.283 8.368M1041.919 88.756s3.72-5.283 11.001 0c0 0-4.957 4.633-11.001 0M1036.419 99.079s3.72-5.284 11.001 0c0 0-4.957 4.633-11.001 0M987.037 154.787s3.491-5.467 12.788 0c0 0-6.569 6.825-12.788 0" fill="#f1ac28"/><path d="M1005.093 134.945c-.042-.514 9.38-3.305 11.871 4.443 0 0 1.661 2.479 3.417 1.343 0 0-14.15 7.541-15.288-5.786" fill="#cf6130"/><path d="M1017.972 119.745c-.044-.514 9.38-3.305 11.87 4.443 0 0 1.66 2.477 3.417 1.341 0 0-14.151 7.542-15.287-5.784M1028.68 109.148c-.043-.515 9.38-3.305 11.87 4.443 0 0 1.66 2.478 3.418 1.342 0 0-14.152 7.54-15.288-5.785" fill="#b9a233"/><path d="M1042.996 125.345c-.43-.286 3.245-9.401 10.861-6.532 0 0 2.974.239 3.178-1.842 0 0-2.896 15.772-14.039 8.374" fill="#cf6130"/><path d="M1025.801 132.061s7.802.612 8.628 7.947c0 0-6.516.224-8.628-7.947M1003.13 136.301s1.446-4.377-2.48-7.928c0 0-1.446 4.636 2.48 7.928" fill="#b9a233"/><path d="M1006.704 89.45s4.816-2.445-.052-8.02c0 0-4.896 5.747.052 8.02" fill="#f1ac28"/><path d="M1022.836 79.427s7.192-2.959-1.557-12.044c0 0-5.21 8.586 1.557 12.044" fill="#cf6130"/><path d="M971.977 129.47s-2.249-6.207-10.461-6.225c0 0 .936 7.046 10.461 6.224" fill="#b9a233"/><path d="M1045.784 1.47s5.603-2.358 8.081 2.911c0 0-5.781 4.248-8.081-2.912" fill="#f1ac28"/><path d="M1036.275 10.51s4.56-4.115 11.54-.706c0 0-7.283 4.975-11.54.705" fill="#cf6130"/><path d="M1031.087 16.059s-.296-6.868-7.902-8.424c0 0 .31 6.468 7.902 8.424" fill="#b9a233"/><path d="M1025.616 25.79s7.796-4.729 13.064 3.51c0 0-10.323 3.8-13.064-3.51" fill="#cf6130"/><path d="M862.824 178.741s4.017-6.157 9.75 0c0 0-.75 6.55-9.75 0M829.256 176.188s6.315.377 3.187-9.11c0 0-6.039.875-3.187 9.11" fill="#f1ac28"/><path d="M817.721 163.513s-.493-7.902-11.79-4.028c0 0 5.593 10.227 11.79 4.028" fill="#cf6130"/><path d="M814.06 151.39s7.225 1.587 7.845-5.54c0 0-6.238-4.262-7.845 5.54" fill="#cd5e2b"/><path d="M811.827 138.103s.006 13.014-11.15 12.24c0 0-2.649-12.86 11.15-12.24M799.592 123.69s1.705 9.454-9.452 6.82c0 0 .312-9.366 9.452-6.82" fill="#f1ac28"/><path d="M761.01 123.25s5.734 4.78-2.323 8.654c0 0-5.523-5.841 2.324-8.653" fill="#cf6130"/><path d="M760.892 121.827s-.656-6.547-9.953-3.658c0 0 4.101 8.455 9.953 3.658M767.893 68.693s7.683-2.59 2.57-11.76c0 0-6.068 2.162-2.57 11.76M769.512 74.104s-8.812-5.892-16.559 0c0 0 9.875 8.673 16.559 0" fill="#b9a233"/><path d="M780.535 82.01c.112.347 6.313-2.48 3.698-11.311 0 0-6.33 3.096-3.698 11.31" fill="#f1ac28"/><path d="M924.416 137.904s2.545-4.965 9.208.965c0 0-4.576 5.588-9.208-.965" fill="#cf6130"/><path d="M911.297 137.735s11.894-5.935 5.075-15.851c0 0-12.01 1.952-5.075 15.85" fill="#b9a233"/><path d="M903.519 137.735s8.928-3.388 12.853 8.87c0 0-12.28 1.402-12.853-8.87" fill="#f1ac28"/><path d="M898.357 138.175s5.619-5.936-4.297-10.598c0 0-5.25 8.707 4.297 10.598" fill="#b9a233"/><path d="M870.873 167.077s5.27-9.848-6.432-15.537c0 0-4.358 9.288 6.432 15.537" fill="#cd5e2b"/><path d="M876.82 150.376s10.63-3.7 14.968 6.01c0 0-9.481 5.129-14.968-6.01" fill="#f1ac28"/><path d="M790.395 4.265s-1.804 4.144-8.002 3.215v.93s7.592-.158 9.607-3.798l-1.605-.347" fill="#6f5d4f"/><path d="M782.393 7.48s-8.832-8.677-14.642 4.959c0 0 13.481 2.478 14.642-4.959" fill="#f1ac28"/><path d="M805.083 11.52s5.097-3.887-2.444-9.568c0 0-4.204 5.293 2.444 9.568M798.817 8.797s-10.64-3.332-13.532 6.584c0 0 10.331 3.771 13.532-6.584M810.432 26.421s-7.276-8.714-14.713-1.897c0 0 7.268 9.528 14.713 1.897" fill="#cf6130"/><path d="M813.383 49.005s-2.84-5.577-12.886-7.437c0 0 3.744 11.156 12.886 7.437" fill="#b9a233"/><path d="M842.473 83.868s5.31-10.225-1.353-14.408c0 0-7.208 7.279 1.353 14.408M863.088-.005h-.385c-.83 1.12-4.586 6.829 1.178 11.61 0 0 5.6-6.029-.793-11.61" fill="#f1ac28"/><path d="M862.863 14.66s.542-4.545-6.96-4.339c0 0 1.164 5.795 6.96 4.339M863.896 25.196s5.855.14 5.888-6.612c0 0-4.816-1.344-5.888 6.612M863.453 37.179s-3.068-8.231-12.572-4.53c0 0 7.788 8.662 12.572 4.53" fill="#cf6130"/><path d="M835.516 35.228s2.763-7.677-5.708-9.579c0 0-2.983 9.906 5.708 9.579M848.804 36.12s-7.632-2.247-9.285 6.43c0 0 7.414 1.291 9.285-6.43" fill="#b9a233"/><path d="M804.912 73.23s1.341-8.229-10.435-10.415c0 0 4.547 13.204 10.435 10.416" fill="#cf6130"/><path d="M815.397 78.655s2.634-2.044-1.24-7.17c0 0-2.584 3.282 1.24 7.17" fill="#b9a233"/><path d="M817.217 81.715s-10.806-3.888-14.836 5.021c0 0 9.606 3.592 14.836-5.021" fill="#f1ac28"/><path d="M835.644 109.848s9.321 2.184 9.783-5.539c0 0-6.194-4.262-9.783 5.539M833.455 109.86s-1.012-8.172-12.48-4.297c0 0 6.182 8.206 12.48 4.297" fill="#b9a233"/><path d="M820.975 128.34s4.105-6.63-3.758-10.907c0 0-2.749 6.414 3.758 10.907M812.467 132.803s6.338-2.448 2.93-11.591c0 0-5.864 1.488-2.93 11.59" fill="#f1ac28"/><path d="M799.564 109.86s8.55 2.675 8.86-7.707c0 0-7.959-1.632-8.86 7.707" fill="#cf6130"/><path d="M794.332 104.52s-2.659-6.86-11.947-4.845c0 0 6.531 7.832 11.947 4.845M757.756 102.252s5.923-1.803-2.307-7.225c0 0-3.505 5.153 2.307 7.225" fill="#f1ac28"/><path d="M758.235 104.272s1.226-5.837-7.296-6.612c0 0 .026 8.73 7.296 6.612M773.288 107.421s3.525-5.784-2.465-10.845c0 0-3.335 7.127 2.465 10.845M784.876 113.93s6.605-.4 4.747-5.778c0 0-5.568-.833-4.747 5.777" fill="#cf6130"/><path d="M776.401 117.433s4.855 3.728.62 8.996c0 0-4.234-4.15-.62-8.996" fill="#ded786"/><path d="M1025.919 59.88s9.134-5.44 17.044-.332c0 0-7.491 7.539-17.044.332" fill="#f1ac28"/><path d="M1019.364 62.319s2.687-5.767-4.857-9.026c0 0-.924 7.102 4.857 9.026" fill="#b9a233"/><path d="M1007.585 68.995s5.994-1.756 8.266 4.286c0 0-4.236 2.428-8.266-4.286" fill="#f1ac28"/><path d="M1020.381 98.933s8.663 1.671 8.058-7.161c0 0-7.916-2.1-8.058 7.161M1015.85 94.868s-11.217 2.172-9.146 11.159c0 0 7.7-1.088 9.147-11.159" fill="#b9a233"/><path d="M1043.301 166.815s9.142 4.182 13.79-6.508c0 0-7.283-3.41-10.382.774-3.098 4.184-3.408 5.734-3.408 5.734" fill="#cf6130"/><path d="M1044.153 166.221s6.508-7.592 0-12.705c0 0-7.282 4.803 0 12.705M1034.75 171.901s9.714-5.37 13.278 2.067c0 0-5.483 5.473-13.277-2.067M1031.756 174.588s2.636-8.057-7.283-8.367c0 0-1.484 7.426 7.283 8.367" fill="#b9a233"/><path d="M1024.21 192.176s2.634-8.057-7.283-8.367c0 0-1.486 7.426 7.282 8.367" fill="#f1ac28"/><path d="M1026.179 190.69s3.718-5.283 11.002 0c0 0-4.958 4.633-11.002 0" fill="#b9a233"/><path d="M1020.679 201.01s3.718-5.282 11.001 0c0 0-4.959 4.635-11.001 0" fill="#cf6130"/><path d="M989.353 236.879c-.044-.516 9.38-3.306 11.87 4.441 0 0 1.661 2.479 3.417 1.343 0 0-14.15 7.541-15.287-5.784" fill="#f1ac28"/><path d="M1002.23 221.679c-.042-.516 9.38-3.306 11.87 4.441 0 0 1.661 2.479 3.419 1.343 0 0-14.152 7.541-15.288-5.784M1012.939 211.08c-.043-.515 9.381-3.305 11.869 4.443 0 0 1.663 2.478 3.42 1.342 0 0-14.152 7.542-15.29-5.785" fill="#cf6130"/><path d="M982.957 260.953c-.429-.286 3.246-9.401 10.862-6.532 0 0 2.974.24 3.177-1.842 0 0-2.897 15.773-14.039 8.374" fill="#f1ac28"/><path d="M1026.12 237.968s7.803.61 8.63 7.945c0 0-6.518.224-8.63-7.945" fill="#cf6130"/><path d="M1006.621 213.657s3.027-4.472-3.929-6.99c0 0-1.499 7.398 3.93 6.99" fill="#b9a233"/><path d="M1007.095 181.359s7.192-2.959-1.558-12.043c0 0-5.208 8.587 1.558 12.043" fill="#f1ac28"/><path d="M1005.83 199.544s8.663 1.67 8.058-7.163c0 0-7.916-2.101-8.057 7.163" fill="#b9a233"/><path d="M989.907 223.483s-7.834 8.318-.902 14.401c0 0 5.612-5.385.902-14.401" fill="#f1ac28"/><path d="M975.845 108.39s5.74-6.797-9.097-13.075c0 0-.228 13.216 9.097 13.074" fill="#cf6130"/><path d="M979.899 71.024s6.718-5.505 14.156 6.976c0 0-13.852.427-14.156-6.976" fill="#f1ac28"/><path d="M969.868 61.012s12.204-10.817 4.353-21.767c0 0-11.161 12.722-4.353 21.767M967.668 73.955s.119-7.268-9.975-10.955c0 0-.713 9.51 9.975 10.955" fill="#b9a233"/><path d="M970.55 16.081s-3.46-8.601 6.305-8.912c0 0 3.813 8.991-6.306 8.912" fill="#f1ac28"/><path d="M966.939 18.223s7.902-4.391 7.902 5.526c0 0-8.057 1.343-7.902-5.526" fill="#b9a233"/><path d="M937.297 3.384S931.455.26 927.271 6.736c0 0 5.332 4.019 10.026-3.352M898.667 118.17s6.961-9.454-3.782-15.473c0 0-6.281 11.55 3.782 15.472M918.481 87.479s11.658 1.605 10.456-10.815c0 0-10.62-2.104-10.456 10.815M851.56 102.697s10.685-4.778 6.347-17.588c0 0-10.419 1.708-6.347 17.588" fill="#cf6130"/><path d="M853.153 61.676s4.334-11.527-11.773-14.168c0 0-.416 13.047 11.773 14.168" fill="#b9a233"/><path d="M913.879 30.2s7.424-7.37-2.582-14.141c0 0-7.969 11.913 2.582 14.141" fill="#cf6130"/><path d="M841.893-.005c2.858.777 6.858 1.389 9.932 0h-9.932M898.039 73.281s5.01-6.765-7.542-8.625c0 0-2.641 8.825 7.542 8.625M892.29 56.128s7.991-4.787 13.894 3.42c0 0-9.7 5.005-13.895-3.42M877.068 57.881s2.307-6.745-5.113-11.2c0 0-5.268 7.526 5.113 11.2M867.928 65.86s9.295-2.265 12.393 5.625c0 0-10.066 2.086-12.393-5.625" fill="#b9a233"/><path d="M902.037 16.808s5.659 1.156 5.763-9.69c0 0-8.115 2.542-5.763 9.69" fill="#f1ac28"/><path d="M898.215 21.43s2.87-2.731 7.105 0c0 0-1.505 3.982-7.105 0" fill="#cf6130"/><path d="M941.77-.005c-.515 1.185-.514 3.081 1.55 5.932 0 0 3.021-2.118 1.088-5.932h-2.637M945.059 8.77s-6.888-3.098-9.576 4.34c0 0 6.445 3.82 9.576-4.34" fill="#f1ac28"/><path d="M935.483 29.381s4.946-6.633-6.458-12.126c0 0-3.149 11.252 6.458 12.126" fill="#cf6130"/><path d="M995.104 41.812s8.797-8.957 0-21.257c0 0-9.163 7.458 0 21.257" fill="#b9a233"/><path d="M979.899 50.385s11.209-1.561 11.133 11.934c0 0-11.344-3.582-11.133-11.934" fill="#cf6130"/><path d="M850.616 70.699c-.161.694 12.304 1.258 13.825-9.675 0 0-11.817 1.05-13.825 9.675M862.488 45.667s9.875-.676 8.51-13.018c0 0-9.3 2.551-8.51 13.018M813.999 37.704s10.202-2.932 9.094-13.19c0 0-8.48 1.887-9.094 13.19" fill="#b9a233"/><path d="M790.14 93.904s10.665-2.825 7.115-12.473c0 0-7.734.04-7.115 12.473" fill="#cf6130"/><path d="M884.524 135.939s3.337-7.346-6.165-12.25c0 0-4.163 7.71 6.165 12.25M908.739 107.717s10.617 7.763 15.013-.296c0 0-4.275-8.146-15.013.296M964.599 101.852s-1.947-10.024-11.243-10.284c0 0 1.973 12.648 11.243 10.284M967.668 82.041c-.43.802 8.825 2.863 10.892-5.505 0 0-6.703-2.315-10.892 5.505M980.85 98.125s8.867-4.921 13.205 2.498c0 0-5.544 5.765-13.206-2.498M930.292 40.165s8.136 5.084 13.636-1.87c0 0-6.82-6.118-13.636 1.87M909.761 47.508s5.643-7.668-6.242-11.453c0 0-4.139 9.18 6.242 11.453M904.028 64.656s10.072 6.193 13.327-3.644c0 0-7.731-5.55-13.327 3.644" fill="#b9a233"/><path d="M880.321 22.83s6.043-5.022 2.944-12.123c0 0-6.166 3.536-2.944 12.124" fill="#cf6130"/><path d="M868.43-.005c-1.931 2.522-3.435 6.889 1.354 12.84 0 0 5.223-7.224 2.99-12.84h-4.345" fill="#b9a233"/><path d="M877.407 21.708s-8.608-3.621-10.82 3.941c0 0 8.525 5.484 10.82-3.941" fill="#f1ac28"/><path d="M996.89 143.441s3.051-4.817-3.973-11.38c0 0-3.008 9.179 3.972 11.38M1024.424 60.421s7.535-2.17 10.017 6.095c0 0-8.157 1.139-10.017-6.095" fill="#b9a233"/><path d="M1023.392 61.499s6.71 1.194 6.041-9.032c0 0-8.106 1.433-6.041 9.032" fill="#cf6130"/><path d="M1018.953 31.183s8.352-.779 10.527 7.825c0 0-9.077.641-10.527-7.825M1025.919 22.09s-6.962-1.451-6.966-7.954c0 0 5.624 1.704 6.966 7.953M814.788 57.881s11.612 1.166 15.64-8.117c0 0-13.152-2.995-15.64 8.117" fill="#b9a233"/><path d="M762.147 58.975s2.174-8.515-7.744-9.578c0 0-.208 8.958 7.744 9.578" fill="#eae99e"/><path d="M823.404 168.679s6.612-5.786 2.685-12.603c0 0-6.853 4.187-2.685 12.603M824.696 121.212s6.197-5.879 10.69 2.561c0 0-5.883 4.258-10.69-2.561" fill="#f1ac28"/><path d="M820.045 132.803s9.626-2.336 10.856 5.277c0 0-6.05 3.059-10.856-5.277" fill="#cd5e2b"/><path d="M833.455 83.868s2.344 6.205-5.507 6.77c0 0-.213-7.902 5.507-6.77" fill="#b9a233"/><path d="M826.387 82.356s3.07-6.647-3.779-9.23c0 0-1.696 7.793 3.779 9.23" fill="#cf6130"/><path d="M810.432 21.425s8.143-.542 7.832-8.057c0 0-8.232 1.256-7.832 8.057" fill="#f1ac28"/><path d="M849.699 77.741c-.139-.358 3.477-2.86 6.204 2.307 0 0-3.976 3.445-6.204-2.307" fill="#b9a233"/><path d="M912.57 99.304s4.178-8.159-5.669-12.107c0 0-4.309 9.438 5.668 12.107" fill="#f1ac28"/><path d="M898.215 48.385s8.113-7.637 3.553-16.333c0 0-8.403 4.076-3.553 16.333" fill="#b9a233"/><path d="M962.865 53.663s6.414-6.774 0-14.418c0 0-8.048 4.664 0 14.418" fill="#f1ac28"/><path d="M884.839 189.821s-4.002-5.544-10.2-2.652c0 0 4.49 6.958 10.2 2.652" fill="#cd5e2b"/><path d="M283.101 274.187s7.191-2.959-1.557-12.046c0 0-5.21 8.59 1.557 12.046" fill="#cf6130"/><path d="M294.295 252.279s9.133-5.44 17.042-.331c0 0-7.49 7.539-17.042.33" fill="#f1ac28"/><path d="M294.075 269.121s2.685-5.766-4.859-9.024c0 0-.924 7.102 4.859 9.024" fill="#b9a233"/><path d="M274.837 282.417s6.712 1.195 6.043-9.033c0 0-8.107 1.435-6.043 9.033" fill="#cf6130"/><path d="M284.564 243.097s8.352-.78 10.527 7.824c0 0-9.078.644-10.527-7.824" fill="#b9a233"/><path d="M1085.427 710.95H0v82.717h1085.427v-82.718" fill="#6f5d4f"/><path d="M61.343 376.027s8.811-5.891 16.559 0c0 0-9.875 8.674-16.559 0" fill="#b9a233"/><path d="M66.44 561.293s3.068-8.23 12.572-4.528c0 0-7.788 8.66-12.572 4.528" fill="#cf6130"/><path d="M53.381 446.173s-9.874-.676-8.509-13.014c0 0 9.298 2.549 8.51 13.014M85.405 497.293s1.947-10.024 11.243-10.285c0 0-1.973 12.65-11.243 10.285" fill="#b9a233"/><path d="M41.611 614.393s-9.713-5.369-13.277 2.068c0 0 5.482 5.475 13.277-2.068" fill="#cf6130"/><path d="M56.99 654.299s-2.634-8.058 7.283-8.367c0 0 1.485 7.424-7.283 8.367M40.473 647.44s-3.718-5.281-11.001 0c0 0 4.958 4.635 11.001 0M62.321 692.005s-3.718-5.281-11 0c0 0 4.958 4.636 11 0M479.37 445.872s-3.49-5.468-12.787 0c0 0 6.569 6.825 12.788 0M92.036 682.379s-4.815-2.446.053-8.02c0 0 4.895 5.746-.053 8.02" fill="#f1ac28"/><path d="M61.057 592.161s-7.192-2.957 1.557-12.044c0 0 5.21 8.59-1.557 12.044" fill="#cf6130"/><path d="M62.606 626.601s-5.992-1.756-8.265 4.287c0 0 4.236 2.428 8.265-4.287" fill="#f1ac28"/><path d="M78.36 691.863s-8.663 1.669-8.058-7.161c0 0 7.917-2.102 8.057 7.16M71.762 717.086s11.217 2.173 9.146 11.16c0 0-7.7-1.09-9.146-11.16" fill="#b9a233"/><path d="M19.546 705.493s-5.741-6.797 9.097-13.076c0 0 .228 13.216-9.097 13.076" fill="#cf6130"/><path d="M92.483 623.323s-6.719-5.506-14.156 6.974c0 0 13.852.426 14.156-6.974" fill="#f1ac28"/><path d="M728.008 403.328s-5.01-6.767 7.541-8.625c0 0 2.643 8.825-7.541 8.625M716.403 498.423s-3.339-7.346 6.165-12.25c0 0 4.161 7.711-6.165 12.25M107.37 727.395c.432.802-8.824 2.864-10.89-5.506 0 0 6.702-2.314 10.89 5.506M108.535 711.386s-8.868-4.918-13.205 2.5c0 0 5.544 5.766 13.205-2.5" fill="#b9a233"/><path d="M388.903 326.91s9.142 4.182 13.79-6.507c0 0-7.282-3.41-10.381.773-3.099 4.184-3.41 5.735-3.41 5.735M334.604 271.092s6.508-7.593 0-12.707c0 0-7.284 4.804 0 12.707M354.245 378.52s9.714-5.37 13.278 2.068c0 0-5.483 5.473-13.278-2.068" fill="#cf6130"/><path d="M322.207 279.459s2.634-8.058-7.283-8.367c0 0-1.484 7.424 7.283 8.367M334.897 390.875s2.634-8.058-7.282-8.368c0 0-1.486 7.425 7.282 8.368M432.488 442.013s3.719-5.282 11.001 0c0 0-4.958 4.635-11.001 0M285.82 396.957s3.719-5.281 11.001 0c0 0-4.958 4.636-11.001 0M1068.447 450.805s1.704 9.455-9.452 6.82c0 0 .31-9.364 9.452-6.82" fill="#f1ac28"/><path d="M1041.537 551.952s-8.81-5.89-16.558 0c0 0 9.876 8.675 16.558 0" fill="#b9a233"/><path d="M1027.587 665.152s5.27-9.848-6.432-15.539c0 0-4.359 9.288 6.432 15.54" fill="#cd5e2b"/><path d="M898.477 387.087s5.31-10.226-1.353-14.408c0 0-7.208 7.278 1.353 14.408M882.795 284.728s-2.659-6.859-11.947-4.845c0 0 6.53 7.833 11.947 4.845" fill="#f1ac28"/><path d="M295.09 305.737s8.663 1.67 8.058-7.161c0 0-7.916-2.101-8.057 7.161" fill="#b9a233"/><path d="M1040.467 365.665s7.19-2.957-1.558-12.042c0 0-5.209 8.588 1.558 12.042" fill="#f1ac28"/><path d="M291.85 280.948s7.534-2.17 10.017 6.095c0 0-8.158 1.138-10.016-6.095" fill="#b9a233"/><path d="M91.75 755.09c.043-.515-9.38-3.306-11.87 4.442 0 0-1.661 2.478-3.417 1.344 0 0 14.15 7.54 15.287-5.785" fill="#cf6130"/><path d="M78.872 739.89c.043-.514-9.38-3.306-11.87 4.44 0 0-1.66 2.48-3.417 1.345 0 0 14.151 7.541 15.287-5.786M68.164 729.292c.043-.515-9.38-3.304-11.87 4.442 0 0-1.661 2.48-3.418 1.343 0 0 14.151 7.54 15.288-5.785" fill="#b9a233"/><path d="M53.847 745.49c.43-.286-3.244-9.4-10.86-6.533 0 0-2.974.24-3.179-1.842 0 0 2.898 15.77 14.04 8.376" fill="#cf6130"/><path d="M71.043 752.207s-7.802.612-8.629 7.945c0 0 6.517.224 8.629-7.945M93.714 756.445s-1.446-4.377 2.479-7.926c0 0 1.447 4.636-2.48 7.926M124.866 749.615s2.25-6.208 10.462-6.226c0 0-.936 7.047-10.462 6.226" fill="#b9a233"/><path d="M285.017 758.247s-.006 13.016 11.15 12.241c0 0 2.648-12.861-11.15-12.241M255.183 756.73s-1.706 9.454 9.452 6.82c0 0-.312-9.365-9.452-6.82" fill="#f1ac28"/><path d="M335.833 743.395s-5.733 4.78 2.324 8.654c0 0 5.523-5.841-2.324-8.654" fill="#cf6130"/><path d="M595.733 746.69s.656-6.545 9.954-3.657c0 0-4.103 8.456-9.954 3.658" fill="#b9a233"/><path d="M172.428 758.05s-2.545-4.966-9.208.963c0 0 4.576 5.59 9.208-.964" fill="#cf6130"/><path d="M137.253 757.605s-11.893-5.933-5.074-15.85c0 0 12.01 1.952 5.074 15.85" fill="#b9a233"/><path d="M193.325 757.88s-8.928-3.388-12.853 8.87c0 0 12.279 1.402 12.853-8.87" fill="#f1ac28"/><path d="M198.487 758.319s-5.62-5.935 4.297-10.598c0 0 5.25 8.708-4.297 10.598" fill="#b9a233"/><path d="M275.868 748.485s-4.104-6.63 3.759-10.908c0 0 2.749 6.415-3.759 10.908M284.377 752.946s-6.34-2.448-2.93-11.589c0 0 5.862 1.487 2.93 11.59" fill="#f1ac28"/><path d="M253.236 712.846s-4.856 3.729-.62 8.997c0 0 4.235-4.15.62-8.997" fill="#ded786"/><path d="M17.83 785.993s-6.96-9.452 3.782-15.472c0 0 6.281 11.55-3.781 15.472" fill="#cf6130"/><path d="M99.954 763.586s-3.051-4.817 3.971-11.38c0 0 3.01 9.178-3.97 11.38" fill="#b9a233"/><path d="M272.147 741.357s-6.196-5.88-10.69 2.56c0 0 5.884 4.258 10.69-2.56" fill="#f1ac28"/><path d="M276.799 752.946s-9.626-2.337-10.856 5.278c0 0 6.05 3.06 10.856-5.278" fill="#cd5e2b"/><path d="M501.968 755.09c-.044-.515 9.38-3.306 11.87 4.442 0 0 1.66 2.478 3.417 1.344 0 0-14.151 7.54-15.287-5.785" fill="#cf6130"/><path d="M481.503 723.576c-.043-.515 9.38-3.305 11.869 4.441 0 0 1.661 2.479 3.419 1.344 0 0-14.152 7.54-15.288-5.785M581.28 760.872c-.043-.515 9.38-3.305 11.87 4.443 0 0 1.66 2.478 3.418 1.342 0 0-14.15 7.54-15.288-5.785" fill="#b9a233"/><path d="M539.87 745.49c-.43-.286 3.245-9.4 10.86-6.533 0 0 2.974.24 3.18-1.842 0 0-2.898 15.77-14.04 8.376" fill="#cf6130"/><path d="M522.675 752.207s7.801.612 8.629 7.945c0 0-6.517.224-8.63-7.945M500.004 756.445s1.445-4.377-2.479-7.926c0 0-1.446 4.636 2.479 7.926M468.852 749.615s-2.25-6.208-10.463-6.226c0 0 .936 7.047 10.463 6.226" fill="#b9a233"/><path d="M308.7 758.247s.007 13.016-11.15 12.241c0 0-2.647-12.861 11.15-12.241" fill="#f1ac28"/><path d="M257.884 743.395s5.733 4.78-2.324 8.654c0 0-5.523-5.841 2.324-8.654" fill="#cf6130"/><path d="M257.765 741.97s-.656-6.545-9.953-3.656c0 0 4.103 8.455 9.953 3.657" fill="#b9a233"/><path d="M421.29 758.05s2.545-4.966 9.207.963c0 0-4.576 5.59-9.208-.964" fill="#cf6130"/><path d="M408.17 757.88s11.894-5.935 5.077-15.85c0 0-12.011 1.95-5.076 15.85" fill="#b9a233"/><path d="M400.392 757.88s8.928-3.388 12.855 8.87c0 0-12.28 1.402-12.855-8.87" fill="#f1ac28"/><path d="M395.23 758.319s5.62-5.935-4.297-10.598c0 0-5.249 8.708 4.298 10.598" fill="#b9a233"/><path d="M364.444 775.975s4.104-6.631-3.757-10.908c0 0-2.751 6.414 3.757 10.908M309.34 752.946s6.34-2.448 2.93-11.589c0 0-5.862 1.487-2.93 11.59" fill="#f1ac28"/><path d="M273.275 737.577s4.856 3.728.62 8.996c0 0-4.235-4.15-.62-8.996" fill="#ded786"/><path d="M395.54 738.314s6.961-9.453-3.781-15.473c0 0-6.282 11.55 3.781 15.473" fill="#cf6130"/><path d="M381.397 756.083s3.339-7.346-6.165-12.25c0 0-4.161 7.71 6.165 12.25M493.763 763.586s3.052-4.817-3.971-11.38c0 0-3.01 9.178 3.97 11.38" fill="#b9a233"/><path d="M367.187 763.432s6.197-5.881 10.69 2.56c0 0-5.884 4.257-10.69-2.56" fill="#f1ac28"/><path d="M316.919 752.946s9.625-2.337 10.856 5.278c0 0-6.051 3.06-10.856-5.278" fill="#cd5e2b"/><path d="M803.68 731.824s8.81-5.89 16.559 0c0 0-9.876 8.673-16.559 0" fill="#b9a233"/><path d="M792.656 739.73c-.112.346-6.312-2.48-3.697-11.31 0 0 6.33 3.096 3.697 11.31M760.744 720.903s-11.377-1.822-10.77-9.666c0 0 10.14-1.458 10.77 9.666" fill="#f1ac28"/><path d="M757.795 736.376s-2.635-2.045 1.238-7.17c0 0 2.586 3.282-1.238 7.17" fill="#b9a233"/><path d="M755.973 739.435s10.808-3.887 14.836 5.02c0 0-9.605 3.593-14.836-5.02" fill="#f1ac28"/><path d="M737.547 767.568s-9.32 2.185-9.783-5.539c0 0 6.195-4.262 9.783 5.539M739.737 767.579s1.012-8.17 12.479-4.298c0 0-6.183 8.21-12.479 4.298" fill="#b9a233"/><path d="M773.628 767.579s-8.55 2.677-8.861-7.706c0 0 7.96-1.633 8.861 7.706" fill="#cf6130"/><path d="M911.724 778.243s2.659-6.86 11.947-4.847c0 0-6.531 7.833-11.947 4.847M815.435 759.972s-5.922-1.803 2.308-7.227c0 0 3.505 5.155-2.308 7.227" fill="#f1ac28"/><path d="M814.957 761.993s-1.226-5.838 7.295-6.612c0 0-.025 8.728-7.295 6.612M799.904 765.141s-3.527-5.784 2.464-10.846c0 0 3.335 7.127-2.464 10.846M788.315 771.65s-6.606-.4-4.746-5.778c0 0 5.568-.833 4.746 5.777M721.632 760.417s-10.685-4.778-6.347-17.589c0 0 10.418 1.71 6.347 17.59" fill="#cf6130"/><path d="M705.263 723.579s-9.294-2.263-12.394 5.628c0 0 10.067 2.082 12.394-5.628" fill="#b9a233"/><path d="M783.05 751.622s-10.665-2.822-7.114-12.47c0 0 7.735.039 7.115 12.47" fill="#cf6130"/><path d="M739.737 741.588s-2.344 6.204 5.507 6.77c0 0 .213-7.902-5.507-6.77" fill="#b9a233"/><path d="M746.805 740.076s-3.07-6.645 3.779-9.23c0 0 1.696 7.793-3.779 9.23" fill="#cf6130"/><path d="M672 721.205c.139-.359-3.476-2.86-6.203 2.305 0 0 3.975 3.446 6.203-2.305" fill="#b9a233"/><path d="M979.925 747.17s4.816-2.446-.052-8.018c0 0-4.896 5.745.052 8.017M753.756 739.73c.112.346 6.313-2.48 3.699-11.31 0 0-6.331 3.096-3.699 11.31" fill="#f1ac28"/><path d="M788.619 736.376s2.633-2.045-1.24-7.17c0 0-2.584 3.282 1.24 7.17" fill="#b9a233"/><path d="M790.439 739.435s-10.807-3.887-14.836 5.02c0 0 9.605 3.593 14.836-5.02" fill="#f1ac28"/><path d="M808.865 767.568s9.322 2.185 9.783-5.539c0 0-6.193-4.262-9.783 5.539M806.676 767.579s-1.012-8.17-12.48-4.298c0 0 6.183 8.21 12.48 4.298" fill="#b9a233"/><path d="M772.785 767.579s8.551 2.677 8.86-7.706c0 0-7.958-1.633-8.86 7.706" fill="#cf6130"/><path d="M730.977 759.972s5.923-1.803-2.306-7.227c0 0-3.506 5.155 2.306 7.227" fill="#f1ac28"/><path d="M665.736 768.208s1.227-5.839-7.296-6.612c0 0 .027 8.73 7.296 6.612M637.152 764.092s3.527-5.784-2.464-10.847c0 0-3.335 7.128 2.464 10.847M758.097 771.65s6.606-.4 4.747-5.778c0 0-5.568-.833-4.747 5.777" fill="#cf6130"/><path d="M1020.847 720.17s5.992-1.754 8.264 4.289c0 0-4.236 2.426-8.264-4.288" fill="#f1ac28"/><path d="M1050.939 748.996s-11.218 2.172-9.146 11.16c0 0 7.699-1.09 9.146-11.16" fill="#b9a233"/><path d="M1062.997 740.473s5.742-6.797-9.097-13.076c0 0-.228 13.216 9.097 13.076" fill="#cf6130"/><path d="M953.12 728.745s6.719-5.505 14.156 6.975c0 0-13.852.427-14.156-6.975" fill="#f1ac28"/><path d="M891.703 745.198s11.658 1.606 10.456-10.814c0 0-10.62-2.105-10.456 10.814M824.781 760.417s10.686-4.778 6.347-17.589c0 0-10.419 1.71-6.347 17.59" fill="#cf6130"/><path d="M841.15 723.579s9.294-2.263 12.393 5.628c0 0-10.067 2.082-12.394-5.628" fill="#b9a233"/><path d="M763.361 751.622s10.667-2.822 7.115-12.47c0 0-7.733.039-7.115 12.47" fill="#cf6130"/><path d="M881.96 765.439s10.617 7.761 15.013-.298c0 0-4.274-8.146-15.013.298M937.82 759.572s-1.947-10.024-11.243-10.286c0 0 1.974 12.65 11.243 10.286M896.807 725.781c-.431.803 8.826 2.864 10.892-5.505 0 0-6.703-2.315-10.892 5.505M954.07 755.844s8.869-4.919 13.206 2.499c0 0-5.544 5.765-13.205-2.5M806.676 741.588s2.344 6.204-5.507 6.77c0 0-.213-7.902 5.507-6.77" fill="#b9a233"/><path d="M799.608 740.076s3.07-6.645-3.779-9.23c0 0-1.696 7.793 3.779 9.23" fill="#cf6130"/><path d="M822.92 735.461c-.139-.357 3.477-2.858 6.204 2.307 0 0-3.976 3.446-6.204-2.307" fill="#b9a233"/><path d="M885.79 757.024s4.18-8.159-5.667-12.107c0 0-4.31 9.438 5.668 12.107" fill="#f1ac28"/><path d="M374.768 710.35c-3.857 0-6.995 3.142-6.995 6.995a7 7 0 006.995 6.995 7 7 0 006.993-6.995c0-3.853-3.136-6.994-6.993-6.994zm0 15.518c-4.699 0-8.521-3.824-8.521-8.523 0-4.697 3.822-8.518 8.521-8.518 4.7 0 8.52 3.82 8.52 8.518 0 4.699-3.82 8.523-8.52 8.523M419.125 663.763s.199-9.456-5.186-10.895c-5.384-1.443-5.978-1.19-5.978-1.19l-1.058-1.949s4.364-.634 6.569.38c2.205 1.019 5.13 2.291 6.697 5.852 1.57 3.56 2.206 5.83 2.418 6.984v.195l-3.462.623M405.8 648.288l2.544 4.197h-1.272l-8.48 3.856-1.525-2.669 8.52-4.139.213-1.245M348.612 674.828l-1.781 1.27.89 2.205s.891 1.525 3.434 1.95c2.545.424 4.24.679 4.494.508.255-.166 1.526-.846 1.526-.846l7.97-3.223s-7.546-1.187-7.885-1.272c-.339-.086-8.648-.592-8.648-.592" fill="#110f0e"/><path d="M348.36 610.432s6.233 12.97 22.767 11.7c0 0 12.208 1.27 15.516-7.757 0 0 1.016-4.07 1.016-7.122V602.8l-1.527-6.484-6.995-9.03s-7.121.38-7.502 0c-.383-.383-11.83-.255-12.211 0-.381.254-12.972 5.723-12.972 5.723s-5.976 2.418-6.232 4.198c-.253 1.778-1.399 6.968-1.27 7.425.127.46 2.797 4.91 3.051 5.29.254.383 6.359.51 6.359.51" fill="#eeb99c"/><path d="M360.823 620.053l-.678 5.683s8.924 2.881 11.043 6.697c0 0-2.125-7.586-1.201-10.236 0 0-5.908-1.974-6.688-2.144-.779-.166-2.476 0-2.476 0" fill="#eeb99c"/><path d="M360.145 625.736s-2.628.847-4.789 10.259c-2.163 9.412-5.09 22.001-6.868 26.578-1.781 4.58-4.07 11.958 2.797 14.37 6.868 2.42 9.094 2.102 7.122 7.505-1.971 5.407-2.67 5.152-2.67 5.152s-.381.005 5.914.004c6.294-.004 4.386-.125 7.376 0 2.989.124 3.624.187 5.469-1.021 1.844-1.207 4.641-2.863 7.693-2.863 3.054 0 4.96-1.207 6.423-2.988 1.463-1.78 1.145-2.227 3.497-2.415 2.354-.192 2.099-1.973 1.144-2.928-.952-.95-6.23-8.708-12.461-13.67-6.233-4.959-8.65-10.556-9.157-13.61-.508-3.05.126-6.737.126-6.737s1.399-10.684-.932-12.464c-2.333-1.781-6.36-5.172-6.36-5.172l-2.289-.636-2.035.636" fill="#e12e22"/><path d="M389.5 681.553l-.359 1.923-23.993 25.265-1.103-2.373 13.48-19.505 3.394-4.914s3.984-1.017 4.238-1.104c.255-.084 4.343.708 4.343.708" fill="#eeb99c"/><path d="M372.397 591.483s.382 12.337 13.99 11.956c0 0-3.18-.83-3.434-3.179 0 0 3.879 4.259 7.823 2.54 3.941-1.715 5.023-2.605 5.023-5.021 0 0-5.724 4.132-7.378.442 0 0-.254-13.353-8.648-16.725-8.393-3.365-17.042-7.181-27.916-1.395-10.873 5.786-17.57 19.69-25.201 17.91-7.63-1.782-6.19-4.326-5.935-4.408 0 0-7.801 4.916 2.204 9.156 0 0-10.258 3.562-11.022-4.579 0 0-7.038 5.259 2.713 10.43 0 0-10.428 1.778-9.835-6.191 0 0-9.581 10.43 13.566 12.634 0 0-8.608 3.64-12.04-1.781 0 0-.678 10.364 18.992 6.708 0 0-2.608 3.939-6.783 2.239 0 0 6.273 5.976 18.992 1.736 0 0-1.78 3.308-4.577 2.8 0 0 1.44 3.39 6.528 1.524 5.088-1.864 12.801-6.527 19.5-7.459 0 0 1.065-.116 1.418-.056 0 0-8.625-2.828-12.017-10.332 0 0-4.367-.288-4.11-7.456 0 0 8.583 2.044 11.677-6.724 0 0 1.336 2.099-.446 3.499 0 0 11.622 2.552 16.916-8.268" fill="#100f0d"/><path d="M348.021 598.01s4.494-11.446 21.875-11.869c0 0 12.559-.305 18.276 9.344l.25 2.736s-5.383-6.314-16.491-7.246c0 0-14.244-.932-23.91 7.036" fill="#c12028"/><path d="M363.97 604.217a1.232 1.232 0 011.262-1.206 1.237 1.237 0 11-1.263 1.207M376.336 604.493a1.237 1.237 0 112.474.059 1.237 1.237 0 01-2.474-.059" fill="#1b1919"/><g clip-path="url(#a)" transform="matrix(.13333 0 0 -.13333 0 793.667)"><path d="M2684.33 1350.03h44.598v44.078h-44.598z" fill="#f29b82"/></g><path d="M381.605 614.124l-.069-.001a2.936 2.936 0 01-2.87-3.003 2.937 2.937 0 012.935-2.873l.066.001a2.938 2.938 0 01-.062 5.876" fill="#f29b82"/><path d="M371.332 608.15l.035.345.002.348-.008.174-.018.175-.024.173-.035.172-.043.172-.053.17-.064.164-.079.161-.092.155-.05.076-.056.069-.123.135-.137.122-.003-.141.159.11.165.103.17.099.175.087.09.038.089.038.185.062.096.023.096.02.098.013.1.004-.099.016-.101.006-.102-.002-.101-.012-.2-.037-.099-.028-.097-.03a3.08 3.08 0 01-.375-.16l-.177-.098-.175-.11-.084-.057.082-.082.117-.111.107-.123.05-.062.044-.07.086-.141.074-.147.062-.154.056-.158.049-.16.044-.164.036-.164.03-.169.029-.165.022-.172.02-.168.027-.344" fill="#1b1919"/><path d="M365.255 613.921l-1.306-.029.007-.316 1.307.028-.008.317M378.436 614.213l-1.305-.029.006-.315 1.307.027-.008.317" fill="#f48f77"/><path d="M371.061 617.256c-2.644-.061-5.041-1.256-6.809-3.413l.245-.2c1.858 2.265 4.428 3.434 7.242 3.282 2.534-.13 5.045-1.352 6.109-2.968l.264.174c-1.115 1.696-3.73 2.974-6.356 3.112a8.66 8.66 0 01-.695.013" fill="#f48f77"/><path d="M398.239 648.907s1.865 1.168 2.246 2.057c.382.89.763 1.97.763 1.97l3.053-.569 1.843-1.084-.572-2.374-2.925-1.25-1.018-.36-3.39 1.61" fill="#eeb99c"/><path d="M364.58 627.563c-.5-.1-4.92 1.358-2.884 5.934 2.035 4.58 13.904 13.566 13.904 13.566l21.467 4.23 4.562-3.973-21.196-3.901s-11.616-15.008-15.853-15.856" fill="#e12e22"/><path d="M337.637 718.152a3.355 3.355 0 11-6.71 0 3.355 3.355 0 016.71 0M438.03 718.152a3.356 3.356 0 11-6.712-.002 3.356 3.356 0 016.711.002" fill="#110f0e"/><path d="M334.283 743.375c-13.931 0-25.223-11.292-25.223-25.223 0-13.932 11.292-25.224 25.223-25.224 13.93 0 25.224 11.292 25.224 25.224 0 13.93-11.294 25.223-25.224 25.223zm0-53.754c-15.756 0-28.531 12.775-28.531 28.531 0 15.757 12.775 28.53 28.53 28.53 15.758 0 28.53-12.773 28.53-28.53 0-15.756-12.772-28.53-28.53-28.53M434.675 743.375c-13.93 0-25.224-11.292-25.224-25.223 0-13.932 11.294-25.224 25.224-25.224 13.929 0 25.224 11.292 25.224 25.224 0 13.93-11.295 25.223-25.224 25.223zm0-53.754c-15.758 0-28.531 12.775-28.531 28.531 0 15.757 12.773 28.53 28.53 28.53 15.758 0 28.531-12.773 28.531-28.53 0-15.756-12.773-28.53-28.53-28.53" fill="#110f0e"/><path d="M304.365 719.253c-.013-.367-.028-.732-.028-1.1 0-16.541 13.407-29.948 29.946-29.948 15.624 0 28.446 11.967 29.818 27.234h2.659c-1.379-16.732-15.388-29.886-32.477-29.886-18.004 0-32.6 14.594-32.6 32.6 0 1.444.104 2.862.285 4.256l2.397-3.156" fill="#a62321"/><path d="M335.088 718.152a.805.805 0 11-1.61 0 .806.806 0 111.61 0M435.48 718.152a.805.805 0 11-1.61 0 .805.805 0 011.61 0" fill="#110f0e"/><path d="M333.687 721.133s34.296 4.12 39.044 4.288M359.379 681.355l-25.096 35.99.805.807 25.436-35.779-1.145-1.018" fill="#a62321"/><path d="M339.672 711.707l37.597-3.22s6.783 1.185 6.614 8.858l-6.614.383s-3.137-5.385-6.868 0l-35.313.424 4.584-6.445" fill="#a62321"/><path d="M377.31 717.345a2.541 2.541 0 01-2.542 2.544 2.541 2.541 0 01-2.543-2.544 2.54 2.54 0 012.543-2.54 2.54 2.54 0 012.543 2.54M398.677 727.076h-12.845v-2.417h12.845v2.417" fill="#110f0e"/><path d="M434.735 685.553c-18.004 0-32.6 14.594-32.6 32.6 0 1.444.105 2.862.286 4.256l2.396-3.156c-.013-.367-.028-.732-.028-1.1 0-16.541 13.407-29.948 29.946-29.948 1.693 0 3.349.148 4.964.419l3.009-2.084a32.526 32.526 0 00-7.973-.987" fill="#a62321"/><path d="M362.812 691.15l6.61 18.009 3.309-.282-6.992-17.728s-2.162-2.29-2.927 0" fill="#110f0e"/><path d="M367.772 696.303s2.545 3.026 11.024-1.552c8.479-4.58 19.427-16.787 27.348-19.923 7.923-3.136 13.857-6.023 13.857-6.023l.847 2.715s-19.839 6.953-25.435 14.752c0 0-15.688 16.73-26.324 13.372l-1.317-3.341M388.757 707.427s5.978-4.538 7.674-9.455c1.696-4.919 19.33-20.688 25.265-21.874l.725 3.393s-16.07 8.402-23.744 21.158c0 0-6.912 8.685-9.92 10.382v-3.604" fill="#110f0e"/><path d="M419.321 665.584s9.764 47.65 14.548 52.568c0 0-9.628-41.208-10.646-53.415l-3.902.847" fill="#110f0e"/><path d="M418.263 665.84l5.786-1.306-.381-1.589-5.66 1.018.255 1.877" fill="#110f0e"/><path d="M434.6 718.656l-32.184-4.835.152-1.005 32.183 4.833-.151 1.007" fill="#a62321"/><path d="M386.937 684.325l1.018 2.542 2.205 31.54 8.817 4.408h-13.565l-4.579-33.147-2.337-3.212 7.255-4.507 1.186 2.376" fill="#eeb99c"/><path d="M385.079 720.398s-1.108.426.333.85c1.441.423 2.67 1.1 4.45.93l1.62-3.111 1.17.585-1.305 2.553s4.069-.068 4.748-.28l.677-.211 2.205 1.1s2.416 1.782 0 1.908c-2.417.127-15.006.169-15.006.169l.338-4.005.77-.488" fill="#ed1d24"/><path d="M334.279 716.983l-15.607-32.108h30.97zm17.724-34.059h-43.156v1.95h8.721l-.02.01 16.277 33.49.458-.222.458.219 16.026-33.49-.016-.006h1.252v-1.951M355.943 619.277c-2.414-.862-11.267-2.662-16.411-.384-5.143 2.272-9.944 2.644-12.385 2.4-2.443-.244-3.115 5.146-3.115 5.146s5.325.076 11.719-1.974c6.393-2.05 8.949-3.36 14.172-2.781 5.226.576 8.304 3.547 8.304 3.547l1.834-5.204-4.118-.75" fill="#a62321"/><path d="M335.087 630.243c2.133.553 9.761 1.45 13.673-.752 3.916-2.194 7.843-2.812 9.904-2.768 2.061.038 1.787-4.42 1.787-4.42s-4.43.289-9.416 2.382c-4.984 2.091-6.902 3.33-11.324 3.199-4.426-.136-7.438-2.372-7.438-2.372l-.716 4.388 3.53.343" fill="#a62321"/><path d="M331.145 621.192c-.848.096-1.632.145-2.324.155-.98 1.606-1.769 3.189-2.152 4.957a41.924 41.924 0 003.052-.393c.399-1.602.82-3.19 1.424-4.719M335.556 620.308c-.992.276-1.952.499-2.852.655-.679 1.506-1.145 3.084-1.545 4.685a43.761 43.761 0 003.357-.828c.303-1.532.559-3.053 1.04-4.512M338.367 619.372c-.404.155-.807.297-1.206.435-.63 1.465-.917 3.022-1.212 4.594.695-.224 1.338-.437 1.95-.64.176-1.462.425-2.916.468-4.389M341.52 622.581c.088-1.452.188-2.901.125-4.356-.682.155-1.336.35-1.938.603l.016.077c.008 1.48-.247 2.932-.439 4.394a87.214 87.214 0 012.236-.718M344.793 621.792c.075-1.324.12-2.65.135-3.976-.664.027-1.32.081-1.959.17.082 1.406-.002 2.807-.092 4.211.648-.169 1.282-.3 1.916-.405M352.223 618.379v3.754c.5.136.99.278 1.436.443-.014-1.199.002-2.405.008-3.615l.06-.284c-.46-.102-.97-.202-1.504-.298M350.89 618.17c-1.443-.207-3.02-.362-4.629-.374a88.864 88.864 0 01-.124 3.817c1.154-.098 2.372-.085 3.786.071.342.037.644.115.966.172v-3.685M355.943 619.277a14.325 14.325 0 00-.943-.285c-.007 1.388-.033 2.77-.004 4.144 2.076.992 3.23 2.095 3.23 2.095l1.835-5.204-4.118-.75M327.299 621.303l-.152-.01c-2.443-.244-3.115 5.146-3.115 5.146s.465.005 1.267-.036c.338-1.822 1.057-3.466 2-5.1M334.441 626.783l.03-.082c-1.386-.594-2.198-1.189-2.198-1.189l-.716 4.388 2.422.235c.122-1.12.298-2.235.462-3.352M343.944 627.475c-1.253.312-2.565.458-4.233.409a14.206 14.206 0 01-3.99-.717c-.152 1.042-.313 2.08-.424 3.124 1.555.365 5.23.821 8.647.492v-3.308M347.088 626.375c-.628.261-1.23.502-1.81.7v3.537c.826-.139 1.61-.34 2.327-.607a33.701 33.701 0 00-.517-3.63M350.89 625.072v-.325c-.953.401-1.785.765-2.554 1.098.243 1.186.424 2.38.545 3.584a22.368 22.368 0 013.02-1.38 35.391 35.391 0 00-.57-2.369.607.607 0 01-.442-.608" fill="#f68714"/><path d="M360.45 622.303s-2.3.156-5.447 1.022c.032 1.259.112 2.512.308 3.758 1.337-.267 2.51-.378 3.353-.36 2.061.038 1.787-4.42 1.787-4.42" fill="#f68714"/><path d="M374.852 622.463a4.079 4.079 0 00-.017-.779c.166-.036.329-.073.481-.119.53-.158 1.017-.326 1.47-.494.326.98-.067 2.201-.237 3.54-.076.592-.069 1.125.038 1.62-.486.601-1.252 1.302-2.432 1.888-.236-1.94.56-3.587.697-5.656M355.213 620.941c-.026-1.266.322-3.004 1.231-3.192 0 0 .339.318 1.016.778-.76.901-1.53 1.78-2.224 2.712l-.023-.298M372.701 624.75c.163-.973.035-1.91-.166-2.842a14.337 14.337 0 001.722-.124c.151 1.233-.645 2.904-.785 3.887a8.33 8.33 0 00.05 2.728 11.49 11.49 0 01-2.503.694c.038-.994.249-1.932.864-2.825.293-.425.725-.968.818-1.519M367.375 624.552c.625-.867.646-1.89.553-2.913.443.05 1.05.114 1.743.168.241 2.828-1.663 4.95-2.796 7.438l-.26-.009c-.86-.057-1.632-.17-2.364-.312.749-1.645 2.018-2.83 3.124-4.372" fill="#a62321"/><path d="M370.41 621.859c.48.029.98.046 1.483.052.294 1.182.487 2.46-.214 3.473-.29.421-.71.905-.888 1.412-.287.807-.39 1.58-.411 2.372-.843.101-1.787.14-2.837.104.81-1.616 2.016-3.021 2.63-4.828.311-.913.355-1.739.236-2.585M360.93 622.079c.555-.435 1.085-.86 1.547-1.347.532.133 1.066.252 1.576.348-1.201 2.187-2.538 4.412-3.002 6.873a10.92 10.92 0 01-2.698-1.704c.424-1.653 1.252-3.125 2.578-4.17M358.03 618.89c.302.185.64.38 1.033.583-.964 1.276-2.194 2.374-3.032 3.687-.131-.31-.184-.501-.184-.501s-.222-.168-.402-.576c.78-1.118 1.691-2.144 2.584-3.194M367.19 621.552l.071.01c.091 1.071.044 2.117-.716 2.998-.625.728-1.334 1.39-1.877 2.201a11.17 11.17 0 00-1.096 2.034 13.94 13.94 0 01-1.901-.599c.454-2.485 1.848-4.767 3.065-6.992 1.388.241 2.445.35 2.453.348M377.613 621.353c1.274-.52 1.78-.328 1.78-.328s-.117 1.223-.358 1.9c-.43 1.207-1.675 2.018-1.675 2.018s-.056.173-.203.445c-.009-1.085.415-2.283.484-3.397.027-.451.1-.292-.028-.638" fill="#a62321"/><path d="M359.645 619.756l.291.139c.53.24 1.14.449 1.773.632-1.001.956-2.217 1.69-2.993 2.925-.41.65-.71 1.445-.924 2.275a8.574 8.574 0 01-1.428-1.899c.808-1.49 2.22-2.7 3.281-4.072" fill="#a62321"/><path d="M376.55 624.61c.169-1.338.562-2.56.235-3.54.244-.089.614.37.828.283.128.346.055.187.028.638-.069 1.114-.493 2.312-.484 3.397-.12.225-.308.52-.57.843-.107-.495-.114-1.028-.038-1.62M373.472 625.67c.14-.982.936-2.653.785-3.886.2-.027.392-.061.578-.1.03.25.036.512.017.779-.137 2.069-.933 3.716-.697 5.656-.196.098-.412.189-.632.28a8.33 8.33 0 01-.051-2.728M371.679 625.384c.701-1.013.508-2.29.214-3.473.215.004.427.002.642-.003.201.932.329 1.87.166 2.841-.093.551-.525 1.094-.818 1.519-.615.893-.826 1.83-.864 2.825-.2.032-.426.051-.639.075.021-.792.124-1.565.41-2.372.18-.507.6-.99.889-1.412M369.67 621.807c.24.02.483.037.74.052a5.404 5.404 0 01-.237 2.585c-.614 1.807-1.82 3.212-2.63 4.828-.222-.005-.436-.01-.668-.027 1.133-2.488 3.037-4.61 2.796-7.438M366.545 624.56c.76-.881.807-1.927.716-2.997.12.009.347.038.667.076.093 1.024.072 2.046-.553 2.913-1.106 1.541-2.375 2.727-3.124 4.372-.224-.043-.463-.08-.679-.13a11.17 11.17 0 011.096-2.033c.543-.81 1.252-1.473 1.877-2.201M364.736 621.204c-1.217 2.225-2.61 4.507-3.065 6.992-.208-.08-.427-.156-.62-.243.464-2.461 1.801-4.686 3.002-6.873.235.044.463.087.683.124M361.71 620.527c.253.073.509.14.767.205-.462.487-.992.912-1.546 1.347-1.326 1.045-2.154 2.517-2.578 4.17a7.909 7.909 0 01-.561-.522c.215-.83.515-1.624.924-2.275.776-1.235 1.992-1.97 2.993-2.925M359.063 619.473c.182.094.382.188.582.283-1.061 1.372-2.473 2.583-3.281 4.072a7.159 7.159 0 01-.333-.668c.838-1.313 2.068-2.41 3.032-3.687M355.236 621.239c.695-.932 1.464-1.811 2.224-2.712.167.114.357.233.57.362-.894 1.05-1.805 2.076-2.585 3.194a2.9 2.9 0 01-.209-.844" fill="#f68714"/></svg>