<svg xmlns="http://www.w3.org/2000/svg" viewBox="0 0 999 999">
  <style>
    <!-- Widen my path with virii

       |   o     | ^   |
       |  =|>   /  |   |
       |  O-O  /       |
       |      /   __   |
       |  ^  |   /  \  |
       |  |  |  |====| |

 -->
    path	{fill:none;stroke-width:12;stroke:black;}
    path.rider	{fill:black;fill-rule:evenodd;stroke-width:12;stroke:black;}
    path.roof	{stroke-width:24;}
    path.kerb	{stroke-width:50;}
    path.centreline {stroke-width:25;}

    path.blade {stroke:black; stroke-width:30; stroke-linejoin:miter; fill:black;}
    path.shaft {stroke:black; stroke-width:40; stroke-linejoin:miter; fill:none;}
    g#uparrow  {transform: translate(130px,660px);}
    
    g#rider {transform: translate(80px,40px) scale(0.9,0.9);}
    g#motorcar {transform: translate(540px,610px) scale(0.9,0.9);}

    path.widen  {stroke:black;stroke-dasharray:150 20;stroke-width:42}
    circle.cell	{stroke:red;stroke-dasharray:30 86;stroke-width:100;fill:red;}

  </style>
  <path class="kerb" d="M0,0v999"/>
  <path class="centreline" d="M999,0v999"/>

  <!-- Widen my path -->
  <path class="widen" d="M250,999v-100c0,-500 350,-150 350,-650v-250"/>
  
  <g id="uparrow">
    <path class="blade" d="M 0,0 l 40,70 -80,0 z" />
    <path class="shaft" d="M 0,70 l 0,120" />
  </g>
  <use href="#uparrow" x="650" y="-470"/>

  <!-- Rider -->
  <circle id="corona" class="cell" cx="290" cy="250" r="200"/>
  <g id="rider">
    <circle id="tyre" class="wheel" cx="80" cy="290" r="90"/>
    <use href="#tyre" x="300"/>
    <path class="rider" d="M170,190c-30,-10,-30,-30,-30,-40c0,-20,20,-80,50,-90c-20,-10,-10,-50,20,-50c50,10,30,60,20,70c-4,-1,-13,-4,-18,-4c16,29,21,54,21,54c0,18,47,30,47,30c-10,26,-10,20,-10,20c0,0,-50,-20,-50,-20c-4,5,-3,9,-9,13c6,7,27,23,39,46c5,10,3,7,3,19c-20,81,-6,75,-7,81c-6,8,-29,3,-49,-7c17,-28,19,-67,9,-79z"/>
  </g>

  <!-- Motor vehicle -->
  <use href="#corona" x="470" y="480"/>
  <g id="motorcar">
    <rect class="chasis"  x="50" y="140" width="400" height="150" />
    <rect    id="cartyre" class="tyre" x="50"   y="320" width="50" height="80" />
    <use   href="#cartyre" x="350"/>
    <path class="roof"     d="M65,150l40,-150 290,0 40,150" />
    <circle class="driver head" cx="300" cy="80" r="45"/>
  </g>

  
</svg>
